<svg xmlns="http://www.w3.org/2000/svg" width="32.24" height="352.614" viewBox="0 0 32.24 352.614">
  <g id="Group_1010" data-name="Group 1010" transform="translate(-691.245 -712)">
    <g id="Group_999" data-name="Group 999" transform="translate(660.245 689)">
      <g id="Group_1004" data-name="Group 1004" transform="translate(33.741 23)">
        <g id="Group_1004-2" data-name="Group 1004">
          <path id="Path_811" data-name="Path 811" d="M18.875,45.1a8.861,8.861,0,0,1-9.773,0,6.139,6.139,0,0,0-5.3,6.1v3.96a.641.641,0,0,0,.639.639H16.32l7.25-7.25A6.228,6.228,0,0,0,18.875,45.1Z" transform="translate(-3.8 -31.494)" fill="#d1d1d1"/>
          <circle id="Ellipse_44" data-name="Ellipse 44" cx="6.132" cy="6.132" r="6.132" transform="translate(4.088)" fill="#d1d1d1"/>
          <path id="Path_812" data-name="Path 812" d="M45.35,83.107a.653.653,0,0,0-.16.287l-.607,3.194a.569.569,0,0,0,.671.671l3.194-.607a.43.43,0,0,0,.287-.16l.607-.607L45.957,82.5Z" transform="translate(-31.553 -56.949)" fill="#d1d1d1"/>
          <rect id="Rectangle_385" data-name="Rectangle 385" width="10.124" height="4.823" transform="translate(15.953 24.015) rotate(-45)" fill="#d1d1d1"/>
          <path id="Path_813" data-name="Path 813" d="M85.563,48.4,83.2,46.041a.752.752,0,0,0-1.054,0L80.9,47.286,84.285,50.7l1.246-1.246A.725.725,0,0,0,85.563,48.4Z" transform="translate(-56.275 -31.988)" fill="#d1d1d1"/>
        </g>
      </g>
    </g>
    <g id="Group_1000" data-name="Group 1000" transform="translate(660.245 771)">
      <path id="Path_814" data-name="Path 814" d="M42.292,24.8a7.447,7.447,0,0,0-7.437,7.437v2.518a24.159,24.159,0,0,0-2.635,1,1.422,1.422,0,0,0-.82,1.23V49.453A1.325,1.325,0,0,0,32.747,50.8H51.661a1.325,1.325,0,0,0,1.347-1.347V36.98a1.324,1.324,0,0,0-.82-1.23,24.16,24.16,0,0,0-2.635-1V32.237A7.157,7.157,0,0,0,42.292,24.8Zm1.991,20.905a.455.455,0,0,1-.117.468.723.723,0,0,1-.468.234H40.828a.533.533,0,0,1-.468-.234.486.486,0,0,1-.117-.468l.937-3.514a2.374,2.374,0,0,1-1.288-2.108,2.342,2.342,0,1,1,4.685,0,2.374,2.374,0,0,1-1.288,2.108Zm2.108-11.77a23.747,23.747,0,0,0-8.14,0V32.178a4.1,4.1,0,0,1,8.2,0v1.757Z" transform="translate(1.6 -3.827)" fill="#d1d1d1"/>
    </g>
    <g id="Group_1001" data-name="Group 1001" transform="translate(660.245 853)">
      <g id="Group_1005" data-name="Group 1005" transform="translate(31 22.794)">
        <path id="Path_815" data-name="Path 815" d="M12.706,0A12.706,12.706,0,1,0,25.412,12.706,12.723,12.723,0,0,0,12.706,0ZM5.118,18.467a.25.25,0,0,1-.187-.151l-.647-1.429a.232.232,0,0,1-.024-.1v-1.33a.258.258,0,0,1,.079-.187l1.894-1.838a.277.277,0,0,1,.2-.071h.008a.27.27,0,0,1,.191.131l.715,1.239,2.779.06a.261.261,0,0,1,.218.131l1.036,1.846,1.465.02a.258.258,0,0,1,.191.091.249.249,0,0,1,.056.206l-.365,2.049a.237.237,0,0,1-.056.119l-1.6,1.894L11.1,22.4a.249.249,0,0,1-.1.206l-1.247.965A11.09,11.09,0,0,1,6.9,22.351l.187-3.534Zm16.069.064a.242.242,0,0,1-.087-.191V16.653l-1.644-3.038a.287.287,0,0,1-.032-.131V11.948l-.941-.707-1.529.445a.225.225,0,0,1-.071.012.3.3,0,0,1-.1-.02L14.1,10.467a.254.254,0,0,1-.147-.183l-.528-2.815a.248.248,0,0,1,.075-.23l1.211-1.163A.258.258,0,0,1,14.894,6h2.462a.247.247,0,0,1,.218.127l.655,1.136,2.232.373L22.4,6.968a11.232,11.232,0,0,1-.473,12.206ZM9.216,1.993l.54.373,2.3.334a.265.265,0,0,1,.179.119.227.227,0,0,1,.032.206l-.334,1.2a.258.258,0,0,1-.159.175l-1.12.4-1.1,1.886a.211.211,0,0,1-.083.083L7.743,7.85a.219.219,0,0,1-.091.036L4.7,8.4v.87l.695.806a.234.234,0,0,1,.06.155L5.5,11.666a.263.263,0,0,1-.123.23.307.307,0,0,1-.135.032.254.254,0,0,1-.135-.036L2.9,10.562a.3.3,0,0,1-.1-.119L2.128,8.815A11.328,11.328,0,0,1,9.216,1.993Z" fill="#d1d1d1"/>
      </g>
    </g>
    <g id="Group_1002" data-name="Group 1002" transform="translate(660.245 935)">
      <g id="Group_1006" data-name="Group 1006" transform="translate(33 27.234)">
        <path id="Path_816" data-name="Path 816" d="M14.263,13.047,23.118,4.34A3.458,3.458,0,0,0,21.638,4H5.218a3.459,3.459,0,0,0-1.48.34L12.6,13.051A1.2,1.2,0,0,0,14.263,13.047Z" transform="translate(-1.7 -4)" fill="#d1d1d1"/>
        <path id="Path_817" data-name="Path 817" d="M16.2,14.431a3.567,3.567,0,0,1-4.948,0L2.368,5.694A3.455,3.455,0,0,0,2,7.226V18.954a3.529,3.529,0,0,0,3.519,3.519h16.42a3.529,3.529,0,0,0,3.519-3.519V7.226a3.455,3.455,0,0,0-.368-1.532Z" transform="translate(-2 -3.707)" fill="#d1d1d1"/>
      </g>
    </g>
    <g id="Group_1003" data-name="Group 1003" transform="translate(660.245 1017)">
      <g id="Group_1009" data-name="Group 1009" transform="translate(35.762 25)">
        <g id="Group_1008" data-name="Group 1008">
          <path id="Path_818" data-name="Path 818" d="M22.332,17a5.243,5.243,0,0,0-3.011.939A5.324,5.324,0,1,0,22.332,17Zm2.154,6.409-1.077,1.077-1.077-1.077-1.077,1.077-1.077-1.077,1.077-1.077-1.077-1.077,1.077-1.077,1.077,1.077,1.077-1.077,1.077,1.077-1.077,1.077Z" transform="translate(-4.812 -5.05)" fill="#d1d1d1"/>
          <circle id="Ellipse_45" data-name="Ellipse 45" cx="6" cy="6" r="6" transform="translate(2.993)" fill="#d1d1d1"/>
          <path id="Path_819" data-name="Path 819" d="M11.664,22.281a6.837,6.837,0,0,1,1.727-4.544,7.573,7.573,0,0,1-8.021-.953A9.134,9.134,0,0,0,1,24.566v3.047H14.221A6.842,6.842,0,0,1,11.664,22.281Z" transform="translate(-1 -4.999)" fill="#d1d1d1"/>
        </g>
      </g>
    </g>
  </g>
</svg>
