<svg id="Group_958" data-name="Group 958" xmlns="http://www.w3.org/2000/svg" width="120.189" height="39.315" viewBox="0 0 120.189 39.315">
  <path id="Path_800" data-name="Path 800" d="M216.83,969.827a5.313,5.313,0,0,1-5.312,5.313H101.954a5.314,5.314,0,0,1-5.313-5.313V941.138a5.314,5.314,0,0,1,5.313-5.313H211.519a5.313,5.313,0,0,1,5.312,5.313Z" transform="translate(-96.641 -935.825)" fill="#5d5d5d"/>
  <g id="Group_963" data-name="Group 963" transform="translate(8.062 5.4)">
    <path id="Path_801" data-name="Path 801" d="M154.917,1003.418a19.472,19.472,0,0,1-1.76,3.286c-1.143,1.74-2.754,3.907-4.75,3.926-1.774.016-2.23-1.155-4.637-1.142s-2.91,1.162-4.684,1.146c-2-.018-3.523-1.975-4.666-3.715-3.2-4.866-3.53-10.576-1.559-13.612a7.073,7.073,0,0,1,5.689-3.42c2.116,0,3.446,1.16,5.2,1.16,1.7,0,2.731-1.162,5.177-1.162a6.9,6.9,0,0,1,5.2,2.748A5.955,5.955,0,0,0,154.917,1003.418Z" transform="translate(-131.637 -983.543)" fill="#fff"/>
    <g id="Group_962" data-name="Group 962" transform="translate(11.189)">
      <path id="Path_802" data-name="Path 802" d="M184.447,966.753a5.939,5.939,0,0,0,1.319-4.4,6.417,6.417,0,0,0-4.142,2.228,5.513,5.513,0,0,0-1.353,4.29A5.415,5.415,0,0,0,184.447,966.753Z" transform="translate(-180.207 -962.355)" fill="#fff"/>
    </g>
  </g>
  <g id="Group_965" data-name="Group 965" transform="translate(36.501 11.699)">
    <g id="Group_964" data-name="Group 964">
      <path id="Path_803" data-name="Path 803" d="M259.661,1004.42l-4.579,13.478h2.1l1.367-4.138h4.433l1.406,4.138h2.155l-4.6-13.478Zm1.086,2.216c.155.6.321,1.226.536,1.9l1.234,3.574h-3.512l1.217-3.6C260.407,1007.931,260.583,1007.3,260.747,1006.636Z" transform="translate(-255.082 -1004.205)" fill="#fff"/>
      <path id="Path_804" data-name="Path 804" d="M313.2,1019.586a3.815,3.815,0,0,0-3.242,1.555l-.081-1.341h-1.865l.011.171c.055.835.078,1.754.078,3.074v10.388h2.039v-4.848a3.581,3.581,0,0,0,2.788,1.2,4.2,4.2,0,0,0,3.09-1.313,5.572,5.572,0,0,0,1.364-3.922,5.424,5.424,0,0,0-1.185-3.581A3.88,3.88,0,0,0,313.2,1019.586Zm-.508,1.688c1.818,0,2.631,1.684,2.631,3.353,0,2.152-1.038,3.489-2.709,3.489a2.472,2.472,0,0,1-2.4-1.892,2.6,2.6,0,0,1-.072-.66v-1.64a3.07,3.07,0,0,1,.065-.5c.01-.056.021-.111.029-.165A2.582,2.582,0,0,1,312.694,1021.274Z" transform="translate(-295.82 -1015.877)" fill="#fff"/>
      <path id="Path_805" data-name="Path 805" d="M358.784,1019.586a3.817,3.817,0,0,0-3.242,1.555l-.081-1.341H353.6l.01.171c.055.836.079,1.754.079,3.074v10.388h2.039v-4.848a3.579,3.579,0,0,0,2.787,1.2,4.21,4.21,0,0,0,3.091-1.313,5.579,5.579,0,0,0,1.364-3.922,5.425,5.425,0,0,0-1.185-3.581A3.878,3.878,0,0,0,358.784,1019.586Zm-.508,1.688c1.817,0,2.631,1.684,2.631,3.353,0,2.152-1.039,3.489-2.709,3.489a2.472,2.472,0,0,1-2.4-1.892,2.6,2.6,0,0,1-.072-.66v-1.64a3.03,3.03,0,0,1,.065-.505c.01-.055.02-.11.03-.164A2.581,2.581,0,0,1,358.276,1021.274Z" transform="translate(-330.901 -1015.877)" fill="#fff"/>
      <path id="Path_806" data-name="Path 806" d="M417,1009.413c-1.9-.737-2.513-1.317-2.513-2.387,0-.9.716-1.811,2.318-1.811a4.633,4.633,0,0,1,2.394.6l.173.107.575-1.7-.114-.067a5.91,5.91,0,0,0-2.97-.666c-2.6,0-4.417,1.535-4.417,3.733,0,1.772,1.137,3.011,3.579,3.9,1.731.647,2.375,1.31,2.375,2.445,0,1.286-.994,2.084-2.592,2.084a5.58,5.58,0,0,1-2.939-.834l-.177-.113-.547,1.741.1.067a6.985,6.985,0,0,0,3.446.886c3.5,0,4.747-2.137,4.747-3.967C420.439,1011.541,419.443,1010.378,417,1009.413Z" transform="translate(-375.961 -1003.488)" fill="#fff"/>
      <path id="Path_807" data-name="Path 807" d="M452.509,1010.439l-2,.628v1.694h-1.464v1.63h1.464v4.992a3.815,3.815,0,0,0,.706,2.587,2.614,2.614,0,0,0,1.973.775,4.806,4.806,0,0,0,1.576-.243l.114-.041-.1-1.633-.2.06a3.069,3.069,0,0,1-.948.11c-.79,0-1.128-.5-1.128-1.674v-4.933h2.46v-1.63h-2.46Z" transform="translate(-404.361 -1008.838)" fill="#fff"/>
      <path id="Path_808" data-name="Path 808" d="M480.508,1019.586c-2.853,0-4.846,2.13-4.846,5.177,0,2.957,1.928,5.021,4.69,5.021h.019a4.807,4.807,0,0,0,4.845-5.2,5.152,5.152,0,0,0-1.3-3.607A4.538,4.538,0,0,0,480.508,1019.586Zm-.059,1.61c1.835,0,2.67,1.788,2.67,3.451,0,2.044-1.14,3.528-2.708,3.528h-.02c-1.546,0-2.669-1.459-2.669-3.469C477.721,1022.959,478.565,1021.2,480.449,1021.2Z" transform="translate(-424.846 -1015.877)" fill="#fff"/>
      <path id="Path_809" data-name="Path 809" d="M527.287,1019.681l-.122-.031a1.964,1.964,0,0,0-.507-.064,2.909,2.909,0,0,0-2.557,1.642l-.06-1.427h-1.83l.012.171c.054.807.077,1.713.077,2.936l-.019,6.661h2.039v-5.2a5.258,5.258,0,0,1,.056-.79,2.254,2.254,0,0,1,2.146-2.055,5.243,5.243,0,0,1,.547.034l.218.023Z" transform="translate(-460.671 -1015.877)" fill="#fff"/>
      <path id="Path_810" data-name="Path 810" d="M548.741,1019.5c-2.714,0-4.61,2.169-4.61,5.275a4.56,4.56,0,0,0,4.806,4.924,7.821,7.821,0,0,0,3.228-.62l.123-.055-.392-1.52-.17.069a6.318,6.318,0,0,1-2.555.457,2.835,2.835,0,0,1-3.054-2.957l6.582.02.026-.13a4.527,4.527,0,0,0,.061-.851C552.787,1021.986,551.727,1019.5,548.741,1019.5Zm-.136,1.551a2.012,2.012,0,0,1,1.5.571,2.9,2.9,0,0,1,.7,1.9h-4.651A2.6,2.6,0,0,1,548.606,1021.053Z" transform="translate(-477.541 -1015.813)" fill="#fff"/>
    </g>
  </g>
</svg>
