<svg xmlns="http://www.w3.org/2000/svg" width="25.62" height="30.406" viewBox="0 0 25.62 30.406">
  <g id="Group_108" data-name="Group 108" transform="translate(-96.4 -67.5)">
    <path id="Path_159" data-name="Path 159" d="M121.47,91.2a16.688,16.688,0,0,1-1.633,2.941,15.161,15.161,0,0,1-2.108,2.55,4.09,4.09,0,0,1-2.708,1.191,6.807,6.807,0,0,1-2.5-.6,7.134,7.134,0,0,0-2.691-.592,7.521,7.521,0,0,0-2.766.592,7.337,7.337,0,0,1-2.391.625,3.821,3.821,0,0,1-2.766-1.225,15.5,15.5,0,0,1-2.2-2.633,18.36,18.36,0,0,1-2.333-4.624,16.977,16.977,0,0,1-.975-5.516,10.025,10.025,0,0,1,1.325-5.266,7.749,7.749,0,0,1,2.766-2.8,7.5,7.5,0,0,1,3.741-1.058,8.777,8.777,0,0,1,2.9.675,9.129,9.129,0,0,0,2.3.675,13.809,13.809,0,0,0,2.55-.8,8.513,8.513,0,0,1,3.466-.617,7.351,7.351,0,0,1,5.757,3.033A6.648,6.648,0,0,0,119.912,88.4a6.9,6.9,0,0,0,2.108,1.383c-.183.492-.358.958-.55,1.408ZM115.6,68.108a6.49,6.49,0,0,1-1.666,4.258,5.652,5.652,0,0,1-4.707,2.325,4.266,4.266,0,0,1-.033-.575,6.641,6.641,0,0,1,1.766-4.3,6.883,6.883,0,0,1,2.15-1.616,6.422,6.422,0,0,1,2.458-.7c.017.2.033.408.033.608Z" transform="translate(0)" fill="#fff"/>
  </g>
</svg>
