<svg id="Group_20" data-name="Group 20" xmlns="http://www.w3.org/2000/svg" width="31" height="31" viewBox="0 0 31 31">
  <path id="Path_24" data-name="Path 24" d="M31,31.2V8.426a3.275,3.275,0,0,0-3.37-3.163V4a.654.654,0,0,0-.674-.633h-2.7A.654.654,0,0,0,23.587,4V5.263h-2.7V4a.654.654,0,0,0-.674-.633h-2.7A.654.654,0,0,0,16.848,4V5.263h-2.7V4a.654.654,0,0,0-.674-.633h-2.7A.654.654,0,0,0,10.109,4V5.263h-2.7V4a.654.654,0,0,0-.674-.633h-2.7A.654.654,0,0,0,3.37,4V5.263A3.275,3.275,0,0,0,0,8.426V31.2a3.275,3.275,0,0,0,3.37,3.163H27.63A3.275,3.275,0,0,0,31,31.2ZM24.935,4.63h1.348V7.161H24.935Zm-6.739,0h1.348V7.161H18.2Zm-6.739,0H12.8V7.161H11.457Zm-6.739,0H6.065V7.161H4.717ZM3.37,6.528V7.794a.654.654,0,0,0,.674.633h2.7a.654.654,0,0,0,.674-.633V6.528h2.7V7.794a.654.654,0,0,0,.674.633h2.7a.654.654,0,0,0,.674-.633V6.528h2.7V7.794a.654.654,0,0,0,.674.633h2.7a.654.654,0,0,0,.674-.633V6.528h2.7V7.794a.654.654,0,0,0,.674.633h2.7a.654.654,0,0,0,.674-.633V6.528a1.963,1.963,0,0,1,2.022,1.9v1.9H1.348v-1.9A1.963,1.963,0,0,1,3.37,6.528ZM1.348,31.2V11.589h28.3V31.2a1.963,1.963,0,0,1-2.022,1.9H3.37A1.963,1.963,0,0,1,1.348,31.2Z" transform="translate(0 -3.365)" fill="#b2b2b2"/>
  <path id="Path_25" data-name="Path 25" d="M43.38,131.271H40.653c-.377,0-.682.227-.682.508v2.03c0,.28.305.508.682.508H43.38c.376,0,.682-.227.682-.508v-2.03C44.061,131.5,43.756,131.271,43.38,131.271ZM42.7,133.3H41.334v-1.015H42.7Z" transform="translate(-36.562 -120.869)" fill="#b2b2b2"/>
  <path id="Path_26" data-name="Path 26" d="M123.321,131.271h-2.727c-.377,0-.682.227-.682.508v2.03c0,.28.305.508.682.508h2.727c.376,0,.682-.227.682-.508v-2.03C124,131.5,123.7,131.271,123.321,131.271Zm-.682,2.03h-1.364v-1.015h1.364Z" transform="translate(-109.821 -120.869)" fill="#b2b2b2"/>
  <path id="Path_27" data-name="Path 27" d="M203.262,131.271h-2.727c-.376,0-.682.227-.682.508v2.03c0,.28.305.508.682.508h2.727c.376,0,.682-.227.682-.508v-2.03C203.943,131.5,203.638,131.271,203.262,131.271Zm-.682,2.03h-1.363v-1.015h1.363Z" transform="translate(-183.034 -120.869)" fill="#b2b2b2"/>
  <path id="Path_28" data-name="Path 28" d="M280.477,134.317H283.2c.377,0,.682-.227.682-.508v-2.03c0-.28-.305-.508-.682-.508h-2.727c-.376,0-.682.227-.682.508v2.03C279.795,134.089,280.1,134.317,280.477,134.317Zm.682-2.03h1.363V133.3h-1.363Z" transform="translate(-256.294 -120.869)" fill="#b2b2b2"/>
  <path id="Path_29" data-name="Path 29" d="M43.38,211.212H40.653c-.377,0-.682.227-.682.508v2.03c0,.28.305.508.682.508H43.38c.376,0,.682-.227.682-.508v-2.03C44.061,211.439,43.756,211.212,43.38,211.212Zm-.682,2.03H41.334v-1.015H42.7Z" transform="translate(-36.562 -194.309)" fill="#b2b2b2"/>
  <path id="Path_30" data-name="Path 30" d="M123.321,211.212h-2.727c-.377,0-.682.227-.682.508v2.03c0,.28.305.508.682.508h2.727c.376,0,.682-.227.682-.508v-2.03C124,211.439,123.7,211.212,123.321,211.212Zm-.682,2.03h-1.364v-1.015h1.364Z" transform="translate(-109.821 -194.309)" fill="#b2b2b2"/>
  <path id="Path_31" data-name="Path 31" d="M203.262,211.212h-2.727c-.376,0-.682.227-.682.508v2.03c0,.28.305.508.682.508h2.727c.376,0,.682-.227.682-.508v-2.03C203.943,211.439,203.638,211.212,203.262,211.212Zm-.682,2.03h-1.363v-1.015h1.363Z" transform="translate(-183.034 -194.309)" fill="#b2b2b2"/>
  <path id="Path_32" data-name="Path 32" d="M280.477,214.258H283.2c.377,0,.682-.227.682-.508v-2.03c0-.28-.305-.508-.682-.508h-2.727c-.376,0-.682.227-.682.508v2.03C279.795,214.03,280.1,214.258,280.477,214.258Zm.682-2.03h1.363v1.015h-1.363Z" transform="translate(-256.294 -194.309)" fill="#b2b2b2"/>
  <path id="Path_33" data-name="Path 33" d="M43.38,291.153H40.653c-.377,0-.682.227-.682.508v2.03c0,.28.305.508.682.508H43.38c.376,0,.682-.227.682-.508v-2.03C44.061,291.38,43.756,291.153,43.38,291.153Zm-.682,2.03H41.334v-1.015H42.7Z" transform="translate(-36.562 -266.752)" fill="#b2b2b2"/>
  <path id="Path_34" data-name="Path 34" d="M123.321,291.153h-2.727c-.377,0-.682.227-.682.508v2.03c0,.28.305.508.682.508h2.727c.376,0,.682-.227.682-.508v-2.03C124,291.38,123.7,291.153,123.321,291.153Zm-.682,2.03h-1.364v-1.015h1.364Z" transform="translate(-109.821 -266.752)" fill="#b2b2b2"/>
  <path id="Path_35" data-name="Path 35" d="M203.262,291.153h-2.727c-.376,0-.682.227-.682.508v2.03c0,.28.305.508.682.508h2.727c.376,0,.682-.227.682-.508v-2.03C203.943,291.38,203.638,291.153,203.262,291.153Zm-.682,2.03h-1.363v-1.015h1.363Z" transform="translate(-183.034 -266.752)" fill="#b2b2b2"/>
  <path id="Path_36" data-name="Path 36" d="M283.885,291.661c0-.28-.305-.508-.682-.508h-2.727c-.376,0-.682.227-.682.508v2.03c0,.28.305.508.682.508H283.2c.377,0,.682-.227.682-.508Zm-1.363,1.523h-1.363v-1.015h1.363Z" transform="translate(-256.294 -266.752)" fill="#b2b2b2"/>
</svg>
