<svg xmlns="http://www.w3.org/2000/svg" width="29.4" height="31.379" viewBox="0 0 29.4 31.379">
  <g id="Group_630" data-name="Group 630" transform="translate(0 3.988)">
    <path id="Path_654" data-name="Path 654" d="M31.676,31.668a1.1,1.1,0,0,0-.705-.828l-2.515.276-1.2-2.791a5.881,5.881,0,0,1-1.687,1.012l.982,2.331-19.14-.031,2.239-5.184.031-.061a.925.925,0,0,1,.767-.491h6.656a7.555,7.555,0,0,1-.521-1.9H10.3a2.82,2.82,0,0,0-2.454,1.748L5.6,31.085,3.181,30.84a1.1,1.1,0,0,0-.705.828,1.609,1.609,0,0,0,1.2,2.239L4.5,34c-1.012,1.932-2.086,5.368.736,8.282a4.3,4.3,0,0,0,1.135.705v1.687a1.165,1.165,0,0,0,1.166,1.166H9.07a1.165,1.165,0,0,0,1.166-1.166V43.078H23.854v1.564a1.165,1.165,0,0,0,1.166,1.166h1.564a1.165,1.165,0,0,0,1.166-1.166V42.956a2.136,2.136,0,0,0,1.074-.705c2.883-2.853,1.963-6.288.982-8.282l.705-.061C32.013,33.508,31.829,32.374,31.676,31.668ZM8.7,38.324a1.687,1.687,0,1,1,1.687-1.687A1.7,1.7,0,0,1,8.7,38.324Zm16.41,0A1.687,1.687,0,1,1,26.8,36.637,1.663,1.663,0,0,1,25.112,38.324Z" transform="translate(-2.376 -18.448)" fill="#fff"/>
    <path id="Path_655" data-name="Path 655" d="M60.376,5.9a6.356,6.356,0,1,0,6.376,6.336A6.358,6.358,0,0,0,60.376,5.9Zm2.446,7.017H61.057v1.764a.682.682,0,0,1-1.363,0V12.917H57.93a.682.682,0,0,1,0-1.363h1.764V9.79a.682.682,0,1,1,1.363,0v1.764h1.764a.682.682,0,0,1,0,1.363Z" transform="translate(-38.166 -9.888)" fill="#fff"/>
  </g>
</svg>
