<svg id="Group_55" data-name="Group 55" xmlns="http://www.w3.org/2000/svg" width="138.161" height="52.411" viewBox="0 0 138.161 52.411">
  <g id="Group_50" data-name="Group 50" transform="translate(59.37 21.845)">
    <path id="Path_97" data-name="Path 97" d="M181.163,683.066a3.662,3.662,0,0,1,.819,2.374,3.752,3.752,0,0,1-1.267,2.991,5.455,5.455,0,0,1-3.672,1.1h-6.451V674.5h6.323a5.4,5.4,0,0,1,3.5,1,3.427,3.427,0,0,1,1.224,2.81,3.505,3.505,0,0,1-.735,2.3,3.419,3.419,0,0,1-1.927,1.171A3.648,3.648,0,0,1,181.163,683.066Zm-7.569-2.267h2.7a2.57,2.57,0,0,0,1.714-.5,1.787,1.787,0,0,0,.586-1.437,1.836,1.836,0,0,0-.575-1.447,2.6,2.6,0,0,0-1.767-.512h-2.661Zm4.683,5.759a1.851,1.851,0,0,0,.639-1.522,1.9,1.9,0,0,0-.649-1.543,2.8,2.8,0,0,0-1.842-.543h-2.832v4.13h2.853A2.827,2.827,0,0,0,178.278,686.558Z" transform="translate(-170.593 -674.497)" fill="#919191"/>
    <path id="Path_98" data-name="Path 98" d="M202.423,689.528l-3.513-5.855h-1.319v5.855h-3V674.5h5.727a5.655,5.655,0,0,1,3.991,1.278,4.791,4.791,0,0,1,.427,6.217A4.677,4.677,0,0,1,202,683.524l3.746,6Zm-4.832-7.92h2.469q2.576,0,2.576-2.278a2.245,2.245,0,0,0-.628-1.693,2.713,2.713,0,0,0-1.948-.606h-2.469Z" transform="translate(-178.963 -674.497)" fill="#919191"/>
    <path id="Path_99" data-name="Path 99" d="M226.558,686.6h-6.025l-1.064,3.023H216.3l5.536-14.86h3.427l5.514,14.86H227.6Zm-.809-2.278-2.214-6.344-2.215,6.344Z" transform="translate(-186.535 -674.588)" fill="#919191"/>
    <path id="Path_100" data-name="Path 100" d="M257.013,689.528h-3l-6.727-10.219v10.219h-3V674.5h3l6.727,10.3V674.5h3Z" transform="translate(-196.297 -674.497)" fill="#919191"/>
    <path id="Path_101" data-name="Path 101" d="M283.571,685.93a6.523,6.523,0,0,1-2.715,2.65,8.866,8.866,0,0,1-4.226.947h-5.344V674.5h5.344a9.034,9.034,0,0,1,4.226.927,6.411,6.411,0,0,1,2.715,2.618,8.77,8.77,0,0,1,0,7.888Zm-3.438-.362a5.5,5.5,0,0,0,0-7.175,5.209,5.209,0,0,0-3.758-1.277h-2.086v9.729h2.086A5.207,5.207,0,0,0,280.133,685.568Z" transform="translate(-205.717 -674.497)" fill="#919191"/>
  </g>
  <g id="Group_54" data-name="Group 54" transform="translate(0 0)">
    <g id="Group_51" data-name="Group 51" transform="translate(18.022)">
      <path id="Path_102" data-name="Path 102" d="M116.836,679.82a19.43,19.43,0,0,1-9.74-2.619l3.765-6.487a11.935,11.935,0,1,0,0-20.657L107.1,643.57a19.434,19.434,0,1,1,9.74,36.25Z" transform="translate(-107.096 -640.95)" fill="#919191"/>
    </g>
    <g id="Group_52" data-name="Group 52" transform="translate(10.388 23.523)">
      <circle id="Ellipse_8" data-name="Ellipse 8" cx="7.91" cy="7.91" r="7.91" transform="translate(0 15.397) rotate(-76.718)" fill="#919191"/>
    </g>
    <g id="Group_53" data-name="Group 53" transform="translate(0 13.604)">
      <path id="Path_103" data-name="Path 103" d="M98.825,700.648A19.4,19.4,0,1,1,113.8,668.9l-5.784,4.774a11.9,11.9,0,1,0-.511,15.72l5.465,5.137A19.48,19.48,0,0,1,98.825,700.648Z" transform="translate(-79.421 -661.841)" fill="#919191"/>
    </g>
  </g>
</svg>
