<svg id="Group_87" data-name="Group 87" xmlns="http://www.w3.org/2000/svg" width="32.862" height="32.585" viewBox="0 0 32.862 32.585">
  <path id="Path_622" data-name="Path 622" d="M31.26,9.144H29.426V8.936A2.849,2.849,0,0,0,26.59,6.1H24.48a2.849,2.849,0,0,0-2.836,2.836v.208H16.385V8.936A2.849,2.849,0,0,0,13.549,6.1h-2.11A2.849,2.849,0,0,0,8.6,8.936v.208H6.735A4.2,4.2,0,0,0,2.549,13.33V34.5a4.178,4.178,0,0,0,4.186,4.186h24.49A4.178,4.178,0,0,0,35.41,34.5V13.33A4.127,4.127,0,0,0,31.26,9.144ZM24.1,8.936a.384.384,0,0,1,.381-.38h2.11a.384.384,0,0,1,.381.38v2.975a.384.384,0,0,1-.381.381H24.48a.384.384,0,0,1-.381-.381Zm-13.041,0a.384.384,0,0,1,.381-.38h2.11a.384.384,0,0,1,.381.38v2.975a.384.384,0,0,1-.381.381h-2.11a.384.384,0,0,1-.381-.381ZM32.851,34.5A1.587,1.587,0,0,1,31.26,36.09H6.769A1.609,1.609,0,0,1,5.178,34.5V18.276H32.851Z" transform="translate(-2.549 -6.1)" fill="#d1d1d1"/>
  <path id="Path_623" data-name="Path 623" d="M20.121,54.366h3.148a1.078,1.078,0,0,0,1.072-1.072V50.872A1.078,1.078,0,0,0,23.269,49.8H20.121a1.078,1.078,0,0,0-1.072,1.072v2.421A1.1,1.1,0,0,0,20.121,54.366Z" transform="translate(-13.341 -34.684)" fill="#d1d1d1"/>
  <path id="Path_624" data-name="Path 624" d="M67.021,54.366h3.148a1.078,1.078,0,0,0,1.072-1.072V50.872A1.078,1.078,0,0,0,70.169,49.8H67.021a1.078,1.078,0,0,0-1.072,1.072v2.421A1.078,1.078,0,0,0,67.021,54.366Z" transform="translate(-44.018 -34.684)" fill="#d1d1d1"/>
  <path id="Path_625" data-name="Path 625" d="M43.621,54.366h3.148a1.078,1.078,0,0,0,1.072-1.072V50.872A1.078,1.078,0,0,0,46.769,49.8H43.621a1.078,1.078,0,0,0-1.072,1.072v2.421A1.078,1.078,0,0,0,43.621,54.366Z" transform="translate(-28.713 -34.684)" fill="#d1d1d1"/>
  <path id="Path_626" data-name="Path 626" d="M20.121,75.866h3.148a1.078,1.078,0,0,0,1.072-1.072V72.372A1.078,1.078,0,0,0,23.269,71.3H20.121a1.078,1.078,0,0,0-1.072,1.072v2.421A1.1,1.1,0,0,0,20.121,75.866Z" transform="translate(-13.341 -48.747)" fill="#d1d1d1"/>
  <path id="Path_627" data-name="Path 627" d="M67.021,75.866h3.148a1.078,1.078,0,0,0,1.072-1.072V72.372A1.078,1.078,0,0,0,70.169,71.3H67.021a1.078,1.078,0,0,0-1.072,1.072v2.421A1.078,1.078,0,0,0,67.021,75.866Z" transform="translate(-44.018 -48.747)" fill="#d1d1d1"/>
  <path id="Path_628" data-name="Path 628" d="M43.621,75.866h3.148a1.078,1.078,0,0,0,1.072-1.072V72.372A1.078,1.078,0,0,0,46.769,71.3H43.621a1.078,1.078,0,0,0-1.072,1.072v2.421A1.078,1.078,0,0,0,43.621,75.866Z" transform="translate(-28.713 -48.747)" fill="#d1d1d1"/>
</svg>
