<svg xmlns="http://www.w3.org/2000/svg" width="28.831" height="17.63" viewBox="0 0 28.831 17.63">
  <g id="Group_1002" data-name="Group 1002" transform="translate(-309.231 -477.628)">
    <path id="Path_650" data-name="Path 650" d="M319.88,462.127a16.012,16.012,0,0,1,5.845,5.886.578.578,0,0,1,0,.595,15.832,15.832,0,0,1-13.822,8.023h-.014a15.827,15.827,0,0,1-13.808-8.023.578.578,0,0,1,0-.595A15.817,15.817,0,0,1,311.89,460h.014A15.8,15.8,0,0,1,319.88,462.127Z" transform="translate(11.744 18.128)" fill="none" stroke="#707070" stroke-width="1" fill-rule="evenodd"/>
    <g id="Ellipse_43" data-name="Ellipse 43" transform="translate(319.02 481.943)" fill="#fff" stroke="#707070" stroke-width="1">
      <circle cx="4.5" cy="4.5" r="4.5" stroke="none"/>
      <circle cx="4.5" cy="4.5" r="4" fill="none"/>
    </g>
  </g>
</svg>
