<svg xmlns="http://www.w3.org/2000/svg" width="140.8" height="60.703" viewBox="0 0 140.8 60.703">
  <g id="Group_65" data-name="Group 65" transform="translate(-616.005 -408.179)">
    <path id="Path_1" data-name="Path 1" d="M642.617,609.2l.12,10.659a3.958,3.958,0,0,1-1.139,2.833,3.81,3.81,0,0,1-2.737,1.168h0a3.972,3.972,0,0,1-3.872-3.986c0-.729-.022-8.335-.05-10.05l-.01-.6h-.09V609.2l-5.606-.007.12,10.659a3.958,3.958,0,0,1-1.138,2.832,3.812,3.812,0,0,1-2.738,1.169h0a3.972,3.972,0,0,1-3.872-3.986c0-.7-.021-8.3-.05-10.05l-.01-.6-5.529-.007v.613c0,1.136.039,4.124.071,6.525.022,1.683.042,3.108.041,3.481a9.415,9.415,0,0,0,9.373,9.435h.011a9.331,9.331,0,0,0,6.7-2.809l.008-.008.028.03a9.289,9.289,0,0,0,6.647,2.787h.011a9.385,9.385,0,0,0,9.384-9.385l-.053-10.679Z" transform="translate(0 -160.385)" fill="#fff"/>
    <path id="Path_2" data-name="Path 2" d="M925,615.062v-5.183H908.214v5.613h9.617l-9.681,9v5.181h17.008v-5.612H915.9Z" transform="translate(-233.093 -160.929)" fill="#fff"/>
    <path id="Path_3" data-name="Path 3" d="M1020.062,608.746a9.417,9.417,0,0,0-4.768-1.2,9.512,9.512,0,0,0-4.868,1.24,8.513,8.513,0,0,0-3.308,3.553,11.707,11.707,0,0,0-1.177,5.375,11.58,11.58,0,0,0,1.194,5.376,8.608,8.608,0,0,0,3.324,3.552,9.44,9.44,0,0,0,4.836,1.24c6.387-.281,8.119-4.693,8.119-4.693l-4.971-1.846a3.841,3.841,0,0,1-3.131,1.394,3.663,3.663,0,0,1-2.481-.9,3.012,3.012,0,0,1-.931-2.067h12.533l.02-.181c.066-.613.066-1.635.066-2.183a11.054,11.054,0,0,0-1.178-5.2A8.455,8.455,0,0,0,1020.062,608.746Zm-8.213,6.743a4.574,4.574,0,0,1,1.148-1.963,3.218,3.218,0,0,1,2.232-.82,3.508,3.508,0,0,1,2.474.843,4.418,4.418,0,0,1,1.154,1.94Z" transform="translate(-311.115 -159.065)" fill="#fff"/>
    <path id="Path_4" data-name="Path 4" d="M1136.038,614.678a9.445,9.445,0,0,0-1.995-6.347,6.5,6.5,0,0,0-2-1.576,6.322,6.322,0,0,0-1.1-.557c-1.515-.592-5.723-.794-7.833,1.3V606.23h-5.948v20.278h5.948v-11a4.514,4.514,0,0,1,.951-3.06,3.557,3.557,0,0,1,5.112,0,4.518,4.518,0,0,1,.951,3.06v1.775h-.02v.2c0,.836,0,1.646-.007,2.4-.006,1.57-.011,5.79.007,6.633l5.95.011C1136.054,626.1,1136.038,614.678,1136.038,614.678Z" transform="translate(-399.856 -157.671)" fill="#fff"/>
    <path id="Path_5" data-name="Path 5" d="M804.069,610.573a10.126,10.126,0,0,0-1.147-.741,7.57,7.57,0,0,0-3.729-.9,9.864,9.864,0,0,0-4.973,1.258,9.129,9.129,0,0,0-3.477,3.534,10.511,10.511,0,0,0-1.261,5.181,10.847,10.847,0,0,0,1.22,5.185,9.253,9.253,0,0,0,3.3,3.566,8.6,8.6,0,0,0,4.6,1.288,8.071,8.071,0,0,0,4.183-1.08,12.041,12.041,0,0,0,1.284-.873v1.618h5.485V609.3h-5.485Zm-.458,10.987a4.528,4.528,0,0,1-1.654,1.82,4.656,4.656,0,0,1-2.519.67,4.464,4.464,0,0,1-2.45-.67,4.519,4.519,0,0,1-1.654-1.82,5.761,5.761,0,0,1-.6-2.657,5.662,5.662,0,0,1,.6-2.636,4.436,4.436,0,0,1,1.649-1.786,4.552,4.552,0,0,1,2.456-.657,4.659,4.659,0,0,1,2.519.67,4.558,4.558,0,0,1,1.656,1.807,5.6,5.6,0,0,1,.6,2.6A5.768,5.768,0,0,1,803.611,621.56Z" transform="translate(-138.412 -160.173)" fill="#fff"/>
    <path id="Path_6" data-name="Path 6" d="M629.462,481.056h1.8a11,11,0,0,0,8.106-3.595,12.175,12.175,0,0,0,3.252-8.4l-.064-9.227-5.967-.008.146,9.187a6.126,6.126,0,0,1-1.616,4.252A7.966,7.966,0,0,1,630.3,475.3a7.659,7.659,0,0,1-4.7-2.037,6.126,6.126,0,0,1-1.616-4.252l.146-9.187-5.967.008-.064,9.227a12.173,12.173,0,0,0,3.252,8.4A11,11,0,0,0,629.462,481.056Z" transform="translate(-1.675 -41.208)" fill="#fff"/>
    <path id="Path_7" data-name="Path 7" d="M842.695,439.226l-.152-31.041-5.375-.007.152,31.041Z" transform="translate(-176.458)" fill="#fff"/>
    <path id="Path_8" data-name="Path 8" d="M666.894,488.524a3.189,3.189,0,1,0-2.977-3.182A3.088,3.088,0,0,0,666.894,488.524Z" transform="translate(-38.227 -59.028)" fill="#fff"/>
    <path id="Path_9" data-name="Path 9" d="M789.084,414.783a3.189,3.189,0,1,0-2.978-3.182A3.088,3.088,0,0,0,789.084,414.783Z" transform="translate(-135.718 -0.192)" fill="#fff"/>
    <path id="Path_10" data-name="Path 10" d="M891.454,473.49h.032a6.444,6.444,0,0,1-3.668,2.313l1.116,4.837a11.559,11.559,0,0,0,8.461-8.295,17.919,17.919,0,0,0,.778-6.074,6.734,6.734,0,1,0-6.72,7.221Zm0-8.98a2,2,0,1,1-1.931,2A1.97,1.97,0,0,1,891.454,464.51Z" transform="translate(-214.405 -40.976)" fill="#fff"/>
    <path id="Path_11" data-name="Path 11" d="M765.328,471.572a16.945,16.945,0,0,0,1.085-6.355v-6.385h-5.86v6.459l0,.074.008.105a10.88,10.88,0,0,1-.75,4.058,7.339,7.339,0,0,1-5.759,4.62l1.154,5.929A13.181,13.181,0,0,0,765.328,471.572Z" transform="translate(-110.141 -40.414)" fill="#fff"/>
    <path id="Path_12" data-name="Path 12" d="M1011,469.171v0l.071-.057c.075-.056.15-.11.222-.172.02-.017.039-.036.058-.055l3.723-3.011-3.474-4.9-2.873,2.324L995.825,446.44l-4.49,3.849,13.763,17.929A4.217,4.217,0,0,0,1011,469.171Z" transform="translate(-299.463 -30.527)" fill="#fff"/>
    <path id="Path_13" data-name="Path 13" d="M1100.74,440.18l26.792-24.57-3.714-4.7-26.7,24.488-11.943-15.987-4.519,3.811,12.016,16.086A5.4,5.4,0,0,0,1100.74,440.18Z" transform="translate(-370.728 -2.181)" fill="#fff"/>
    <path id="Path_14" data-name="Path 14" d="M1150.852,474.431a3.686,3.686,0,1,0-3.442-3.678A3.566,3.566,0,0,0,1150.852,474.431Z" transform="translate(-423.989 -46.992)" fill="#fff"/>
  </g>
</svg>
