<svg xmlns="http://www.w3.org/2000/svg" xmlns:xlink="http://www.w3.org/1999/xlink" width="117.833" height="38.545" viewBox="0 0 117.833 38.545">
  <defs>
    <clipPath id="clip-path">
      <path id="Path_787" data-name="Path 787" d="M151.7,339.187l-5.313-3.068L136.142,330.2c-.569-.329-1.136-.13-1.136.557v24.109c0,.515.405.737.9.451l10.485-6.054L151.7,346.2l5.107-2.948c.6-.346.542-.821.036-1.093S151.7,339.187,151.7,339.187Z" transform="translate(-135.006 -330.047)" fill="none"/>
    </clipPath>
    <linearGradient id="linear-gradient" x1="0.5" x2="0.5" y2="1" gradientUnits="objectBoundingBox">
      <stop offset="0" stop-color="#0067a2"/>
      <stop offset="0.403" stop-color="#3d91a8"/>
      <stop offset="0.805" stop-color="#74b7ae"/>
      <stop offset="1" stop-color="#8ac6b1"/>
    </linearGradient>
    <linearGradient id="linear-gradient-2" y1="0.5" x2="1" y2="0.5" gradientUnits="objectBoundingBox">
      <stop offset="0" stop-color="#50b09b"/>
      <stop offset="1" stop-color="#e9e486"/>
    </linearGradient>
    <linearGradient id="linear-gradient-3" x1="0.5" x2="0.5" y2="1" gradientUnits="objectBoundingBox">
      <stop offset="0" stop-color="#dc1b24"/>
      <stop offset="0.228" stop-color="#c1203b"/>
      <stop offset="0.748" stop-color="#8a2b6c"/>
      <stop offset="1" stop-color="#753080"/>
    </linearGradient>
    <linearGradient id="linear-gradient-4" x1="0.5" x2="0.5" y2="1" gradientUnits="objectBoundingBox">
      <stop offset="0" stop-color="#eb7165"/>
      <stop offset="0.003" stop-color="#eb7164"/>
      <stop offset="0.675" stop-color="#f9a85e"/>
      <stop offset="1" stop-color="#ffbe5c"/>
    </linearGradient>
  </defs>
  <g id="Group_957" data-name="Group 957" transform="translate(0)">
    <path id="Path_782" data-name="Path 782" d="M214.474,329.409a5.209,5.209,0,0,1-5.208,5.209H101.85a5.21,5.21,0,0,1-5.209-5.209V301.283a5.21,5.21,0,0,1,5.209-5.209H209.266a5.209,5.209,0,0,1,5.208,5.209Z" transform="translate(-96.641 -296.074)" fill="#5d5d5d"/>
    <g id="PLAY" transform="translate(8.838 6.3)">
      <g id="Group_957-2" data-name="Group 957" clip-path="url(#clip-path)">
        <path id="Path_783" data-name="Path 783" d="M135.006,328.285v26.1l13.162-13.051Z" transform="translate(-135.006 -328.691)" fill="url(#linear-gradient)"/>
        <path id="Path_784" data-name="Path 784" d="M151.7,337.514l-5.313-3.068-11.384-6.573v.095l13.162,13.051Z" transform="translate(-135.006 -328.374)" fill="url(#linear-gradient-2)"/>
        <path id="Path_785" data-name="Path 785" d="M135.006,397.988v.095l11.384-6.573,5.313-3.067-3.535-3.505Z" transform="translate(-135.006 -372.292)" fill="url(#linear-gradient-3)"/>
        <path id="Path_786" data-name="Path 786" d="M195.675,369.721l-3.535,3.506,3.535,3.505,6.072-3.505Z" transform="translate(-178.977 -360.581)" fill="url(#linear-gradient-4)"/>
      </g>
    </g>
    <g id="Group_958" data-name="Group 958" transform="translate(88.171 12.599)">
      <path id="Path_788" data-name="Path 788" d="M482.9,380.8a3.283,3.283,0,0,1-1.354-.273,2.552,2.552,0,0,1-1.029-.841h-.083a10.2,10.2,0,0,1,.083,1.26v3.123h-1.149v-11h.935l.159,1.039h.055a2.672,2.672,0,0,1,1.033-.9,3.135,3.135,0,0,1,1.35-.277,2.806,2.806,0,0,1,2.331,1.032,5.5,5.5,0,0,1-.013,5.8A2.813,2.813,0,0,1,482.9,380.8Zm-.166-6.891a2.037,2.037,0,0,0-1.683.644,3.317,3.317,0,0,0-.534,2.05v.256a3.8,3.8,0,0,0,.534,2.289,2.029,2.029,0,0,0,1.711.689,1.78,1.78,0,0,0,1.542-.8,3.779,3.779,0,0,0,.557-2.2,3.638,3.638,0,0,0-.557-2.178A1.835,1.835,0,0,0,482.734,373.909Z" transform="translate(-479.368 -369.884)" fill="#f9f9f9"/>
      <path id="Path_789" data-name="Path 789" d="M516.094,370.48h-1.15V359.7h1.15Z" transform="translate(-506.748 -359.703)" fill="#f9f9f9"/>
      <path id="Path_790" data-name="Path 790" d="M531.133,380.707l-.229-1.08h-.055a3.185,3.185,0,0,1-1.133.966,3.44,3.44,0,0,1-1.409.253,2.537,2.537,0,0,1-1.77-.582,2.121,2.121,0,0,1-.641-1.655q0-2.3,3.678-2.41l1.289-.042v-.471a1.922,1.922,0,0,0-.385-1.319,1.58,1.58,0,0,0-1.229-.426,5.007,5.007,0,0,0-2.147.582l-.353-.88a5.4,5.4,0,0,1,1.23-.478,5.324,5.324,0,0,1,1.34-.173,2.892,2.892,0,0,1,2.012.6,2.517,2.517,0,0,1,.654,1.933v5.18Zm-2.6-.81a2.336,2.336,0,0,0,1.687-.589,2.18,2.18,0,0,0,.613-1.649v-.686l-1.15.048a4.183,4.183,0,0,0-1.977.427,1.284,1.284,0,0,0-.606,1.174,1.183,1.183,0,0,0,.378.949A1.565,1.565,0,0,0,528.536,379.9Z" transform="translate(-515.178 -369.931)" fill="#f9f9f9"/>
      <path id="Path_791" data-name="Path 791" d="M555.222,373.533h1.232l1.662,4.329A16.541,16.541,0,0,1,558.8,380h.056q.09-.354.377-1.209t1.88-5.26h1.233l-3.263,8.644A4.311,4.311,0,0,1,557.947,384a2.408,2.408,0,0,1-1.589.536,4.649,4.649,0,0,1-1.039-.117v-.921a4.017,4.017,0,0,0,.852.083,1.756,1.756,0,0,0,1.69-1.33l.422-1.08Z" transform="translate(-537.747 -370.347)" fill="#f9f9f9"/>
    </g>
    <g id="Group_960" data-name="Group 960" transform="translate(35.757 10.799)">
      <path id="Path_792" data-name="Path 792" d="M382.465,374.685a2.586,2.586,0,0,1-.207,4.4,1.117,1.117,0,0,0-.445.779.871.871,0,0,0,.413.682l.572.444a2.764,2.764,0,0,1,1.333,2.224c0,1.492-1.445,3-4.175,3-2.3,0-3.413-1.1-3.413-2.271A2.284,2.284,0,0,1,377.766,382a6.843,6.843,0,0,1,3.032-.731,1.661,1.661,0,0,1-.477-1.078,1.433,1.433,0,0,1,.159-.62c-.175.016-.35.032-.509.032a2.51,2.51,0,0,1-2.635-2.492,2.856,2.856,0,0,1,1.016-2.128,4.33,4.33,0,0,1,2.843-.874h3.27l-1.016.572Zm-1.128,7.05a2.461,2.461,0,0,0-.365-.017,6.356,6.356,0,0,0-1.667.255,1.784,1.784,0,0,0-1.366,1.635c0,1.127,1.1,1.938,2.8,1.938,1.523,0,2.334-.732,2.334-1.715C383.069,383.019,382.545,382.592,381.338,381.735Zm.461-3.017a1.606,1.606,0,0,0,.4-1.159c0-1.143-.682-2.921-2-2.921a1.483,1.483,0,0,0-1.112.524,1.834,1.834,0,0,0-.35,1.175c0,1.064.619,2.826,1.985,2.826A1.626,1.626,0,0,0,381.8,378.718Z" transform="translate(-347.818 -369.945)" fill="#f9f9f9"/>
      <path id="Path_793" data-name="Path 793" d="M345.941,380.728a3.741,3.741,0,0,1-3.868-3.742,3.928,3.928,0,0,1,4.106-3.851,3.706,3.706,0,0,1,3.788,3.741A3.873,3.873,0,0,1,345.941,380.728Zm1.981-1.284a2.868,2.868,0,0,0,.476-1.76c0-1.4-.666-4.058-2.632-4.058a2.208,2.208,0,0,0-1.426.54,2.4,2.4,0,0,0-.73,1.934c0,1.568.777,4.151,2.7,4.151A2.025,2.025,0,0,0,347.922,379.444Z" transform="translate(-321.289 -369.192)" fill="#f9f9f9"/>
      <path id="Path_794" data-name="Path 794" d="M308.644,380.728a3.741,3.741,0,0,1-3.868-3.742,3.928,3.928,0,0,1,4.106-3.851,3.706,3.706,0,0,1,3.788,3.741A3.873,3.873,0,0,1,308.644,380.728Zm1.982-1.284a2.872,2.872,0,0,0,.476-1.76c0-1.4-.666-4.058-2.632-4.058a2.209,2.209,0,0,0-1.426.54,2.4,2.4,0,0,0-.729,1.934c0,1.568.776,4.151,2.7,4.151A2.026,2.026,0,0,0,310.626,379.444Z" transform="translate(-292.585 -369.192)" fill="#f9f9f9"/>
      <path id="Path_795" data-name="Path 795" d="M262.836,368.493l-2.279.526a16.893,16.893,0,0,1-2.629.27,5.663,5.663,0,0,1-6.072-5.77c0-3.091,2.374-5.959,6.439-5.959a9.175,9.175,0,0,1,2.438.334,6.214,6.214,0,0,1,2.1.988l-1.323,1.259-.557.127.4-.637a4.555,4.555,0,0,0-3.41-1.5,4.4,4.4,0,0,0-4.415,4.7,5.636,5.636,0,0,0,5.641,5.816,4.746,4.746,0,0,0,2.024-.4v-2.565l-2.406.127,1.274-.686h3.379l-.414.4a.372.372,0,0,0-.16.255c-.017.144-.032.606-.032.766Z" transform="translate(-251.856 -357.205)" fill="#f9f9f9"/>
      <path id="Path_796" data-name="Path 796" d="M412.806,366.848c-.526-.048-.636-.143-.636-.765v-9.02c0-.034.006-.07.009-.1.064-.557.223-.653.718-.94h-2.28l-1.2.574h1.219v9.841c0,.318-.063.366-.43.844h2.821l.59-.35C413.349,366.9,413.078,366.879,412.806,366.848Z" transform="translate(-373.122 -356.019)" fill="#f9f9f9"/>
      <path id="Path_797" data-name="Path 797" d="M432.967,380.183c-.173.1-.348.207-.521.285a3.686,3.686,0,0,1-1.537.3,3.382,3.382,0,0,1-2.105-.618,4.1,4.1,0,0,1-1.614-3.34,3.587,3.587,0,0,1,3.625-3.656,3.077,3.077,0,0,1,1.631.443,2.62,2.62,0,0,1,1.107,1.566l-3.719,1.5-1.219.095c.4,2.01,1.756,3.18,3.26,3.18a4.09,4.09,0,0,0,1.931-.553Zm-1.487-4.717c.3-.111.458-.206.458-.427a1.57,1.57,0,0,0-1.567-1.361,1.949,1.949,0,0,0-1.82,2.2c0,.269.032.554.048.839Z" transform="translate(-386.797 -369.208)" fill="#f9f9f9"/>
      <g id="Group_959" data-name="Group 959" transform="translate(47.225 3.948)">
        <path id="Path_798" data-name="Path 798" d="M457.318,373.264v1.044h-.127v-1.044h-.346v-.108h.818v.108Z" transform="translate(-456.846 -373.156)" fill="#f9f9f9"/>
        <path id="Path_799" data-name="Path 799" d="M462.168,374.309v-1.054h-.006l-.322,1.054h-.1l-.325-1.054h0v1.054H461.3v-1.153h.2l.294.932h0l.289-.932h.2v1.153Z" transform="translate(-460.272 -373.156)" fill="#f9f9f9"/>
      </g>
    </g>
  </g>
</svg>
