<svg xmlns="http://www.w3.org/2000/svg" width="22.774" height="32.25" viewBox="0 0 22.774 32.25">
  <g id="Group_581" data-name="Group 581" transform="translate(0 0)">
    <g id="Group_580" data-name="Group 580" transform="translate(0 0)">
      <path id="Path_651" data-name="Path 651" d="M-196.366,280.956a.559.559,0,0,1,.054.651c0-.093.054-.186-.054-.232-.054,0-.054.047-.054.093a.233.233,0,0,0-.107-.186,2.01,2.01,0,0,0-.107.79c-.107-.046,0-.232-.107-.186-.161.046-.054.279,0,.418a2.039,2.039,0,0,1-.107-2,4.448,4.448,0,0,1,.967-1.023c.054-.046.161-.186,0-.186-.161-.046-.269.093-.322.232l-.107-.093c-.054.139-.161.279-.215.418,0-.046,0-.186-.054-.186-.161.047-.161.279-.215.418,0-.046,0-.186-.054-.139-.161.093-.161.325-.215.511,0-.047.054-.186-.054-.186-.161.046-.107.232-.107.372a.158.158,0,0,0-.054-.093c-.161.139-.107.325-.107.465-.107-.046-.054-.186-.107-.186-.161.139-.107.325-.161.511-.054-.093.054-.232-.054-.325a1.343,1.343,0,0,0-.161.418c-.054-.139.054-.279-.054-.372-.107.139,0,.325-.054.465a1.854,1.854,0,0,1,.054-1.208,3.4,3.4,0,0,1,.376-.558,2.715,2.715,0,0,1,.591-.465c.322-.233.752-.279,1.021-.558-.107-.093-.268.046-.376-.047l-.107.093c0-.046,0-.093-.054-.093a.3.3,0,0,0-.215.093c0-.046,0-.093-.054-.093-.107,0-.161.093-.215.139a.157.157,0,0,0-.053-.093c-.054.046-.215.046-.215.186l-.107-.093a.233.233,0,0,0-.107.186c0-.047,0-.093-.054-.093a.233.233,0,0,0-.107.186l-.054-.047a.6.6,0,0,0-.107.279.157.157,0,0,0-.054-.093c-.107.093-.054.232-.107.325a.982.982,0,0,1,.752-1.208,2.616,2.616,0,0,1,1.88-.046.157.157,0,0,0,.054-.093c-.054-.14-.215-.418-.43-.232a.157.157,0,0,1,.054-.139c-.107-.139-.269.046-.376,0l.054-.047c-.107-.139-.215.047-.322,0l.054-.046c0-.046-.054-.046-.107-.046-.054.046-.215.046-.215.186,0-.046.054-.186-.054-.186-.161.046-.215.232-.322.325a.362.362,0,0,1,.215-.465,1.9,1.9,0,0,1,1.5-.186,1.187,1.187,0,0,1,.645.558,2.086,2.086,0,0,0,.215-.6.157.157,0,0,0,.054.139c.108-.186.054-.418.161-.6.108.186.054.418.161.6a.156.156,0,0,0,.054-.139,2.089,2.089,0,0,0,.215.6,1.231,1.231,0,0,1,.859-.6c.591-.093,1.557.046,1.5.7-.107-.093-.161-.279-.322-.325-.107,0-.054.139-.054.186,0-.139-.161-.139-.215-.186a.063.063,0,0,0-.107.046c0,.046.054.046.054.093-.107-.047-.215-.139-.322-.047.054,0,.054.047.054.093a.849.849,0,0,0-.322-.093c-.108.047.054.139,0,.186-.054-.093-.161-.046-.215-.046-.108.093-.322.372-.269.372a3.217,3.217,0,0,1,1.987.046,1.372,1.372,0,0,1,.645.418,1.308,1.308,0,0,1,.108.79c-.108-.093,0-.232-.108-.325a.157.157,0,0,0-.054.093c0-.186-.161-.279-.269-.418-.054,0-.054.046-.054.093a.233.233,0,0,0-.108-.186l-.107.093c0-.139-.161-.139-.215-.186a.157.157,0,0,0-.054.093l-.161-.139c-.107,0-.161.093-.269,0-.054-.046-.108,0-.108.093l-.107-.093c-.107.093-.268-.046-.376.047.483.372,1.182.511,1.611,1.022a1.845,1.845,0,0,1,.43,1.766c-.054-.139.054-.325-.054-.465-.108.093,0,.232-.054.372a1.35,1.35,0,0,0-.161-.418c-.107.093-.054.232-.054.325-.054-.186,0-.372-.161-.511-.054,0,0,.139-.107.186,0-.139.054-.325-.107-.465a.158.158,0,0,0-.054.093c0-.139.054-.325-.107-.372-.108,0-.054.139-.054.186-.054-.186-.054-.418-.215-.511-.054-.046-.054.093-.054.139-.054-.139-.054-.372-.215-.418-.054,0-.054.14-.054.186-.054-.139-.161-.279-.215-.418l-.107.093a.457.457,0,0,0-.322-.279c-.054,0-.054.093-.054.139.322.372.752.651,1.021,1.023a2.087,2.087,0,0,1-.108,2.092c.054-.139.161-.372,0-.418-.107-.047,0,.139-.107.186a2.013,2.013,0,0,0-.107-.79.233.233,0,0,0-.108.186c0-.046,0-.093-.054-.093-.108.047-.054.139-.054.232a.925.925,0,0,1,.107-.744.6.6,0,0,0-.107-.279.233.233,0,0,0-.107.186c-.054-.186,0-.418-.108-.6-.107.046-.054.139-.054.186-.107-.139.054-.325-.107-.418-.054,0,0,.139-.107.186,0-.139.054-.325-.107-.418-.054,0-.054.139-.054.186,0-.139-.054-.372-.215-.418-.054,0,0,.14-.054.186h-.108c0-.046,0-.093-.054-.093s-.107,0-.107.047c.054.139.269.139.322.279,0,.139.161.186.161.325a.22.22,0,0,0-.322-.046c.269.093.537.232.484.511,0-.093-.107-.186-.215-.232-.054,0-.161,0-.161.046.215.186.43.372.376.651a.253.253,0,0,0-.161-.232.2.2,0,0,0-.108.046,1.062,1.062,0,0,1,.215.883c0-.093.054-.232-.054-.186-.108,0-.054.139-.054.232l-.054-.047c-.107.139.054.232,0,.372s-.054.232-.107.372c-.054-.139.054-.325-.054-.465a1.294,1.294,0,0,0-.108.651c0-.046,0-.093-.054-.093-.107.047,0,.186-.107.232a6.033,6.033,0,0,0-.107-.976c.054,0,.107,0,.107-.046,0-.093.054-.279-.054-.279-.108-.046,0,.186-.108.232,0-.186,0-.372-.161-.418-.107-.047.054.139-.107.186-.215.047-.108-.139-.215-.232a27.555,27.555,0,0,0,0,4.7c0,.232.161.465.107.7a.361.361,0,0,0-.054.325.684.684,0,0,0,.161.419c.054.186-.161.372-.108.558a4.748,4.748,0,0,0,.591.976h-2.148c.215-.372.591-.7.537-1.115,0-.139-.107-.279-.054-.418.269-.372.054-.7.107-1.116a.6.6,0,0,0,.107-.279,35.026,35.026,0,0,0,0-4.748c-.107.047-.054.139-.054.186-.054.093-.215.046-.269-.047.054,0,.054-.046.054-.093-.107-.14-.107.046-.161.046a.436.436,0,0,0-.054.372c-.108-.046,0-.279-.108-.232-.107,0-.053.186-.053.279,0,.046.053.046.107.046a6.026,6.026,0,0,0-.107.976c-.108-.046,0-.186-.108-.232-.054,0-.054.047-.054.093a1.3,1.3,0,0,0-.107-.651c-.107.139,0,.325-.054.465-.054-.139-.054-.232-.107-.372s.107-.232,0-.372l-.054.047c0-.093.054-.232-.054-.232-.107-.047-.054.093-.054.186a.828.828,0,0,1,.215-.836c.054-.047,0-.093-.054-.093-.161,0-.161.139-.215.232-.054-.279.161-.465.376-.651,0-.046-.107-.046-.161-.046-.107.046-.215.139-.215.232-.054-.279.215-.418.483-.511a.22.22,0,0,0-.322.046,1.228,1.228,0,0,1,.43-.465.3.3,0,0,0-.215-.093c.107-.046,0-.139.107-.186,0-.046-.054-.046-.107-.046a.551.551,0,0,0-.269.465c0-.046,0-.186-.054-.186-.161.093-.108.279-.108.418-.107-.046,0-.186-.107-.186-.161.093,0,.279-.107.418,0-.046.054-.139-.054-.186-.107.186-.054.418-.107.6a.233.233,0,0,0-.107-.186c-.054.139-.161.232-.054.372Z" transform="translate(205.443 -276.68)" fill="#565a5f"/>
      <path id="Path_652" data-name="Path 652" d="M-248.43,373.25a16.3,16.3,0,0,1,4.781,2.231,15.08,15.08,0,0,1,11.333-2.556c-3.814.093-7.788.976-10.581,3.3l2.256,1.813c.215-.279.215-.651.484-.93a1.321,1.321,0,0,1,1.074-.372.733.733,0,0,1,.645.837c-.161.558-.859.7-1.45.372-.107-.047-.268.279-.161.418a1.991,1.991,0,0,0,1.074.651.934.934,0,0,1,1.4,0,.591.591,0,0,1-.269.93,3.338,3.338,0,0,1-2.9-.79c-.484.651-1.773,1.348-2.525.511a.576.576,0,0,1-.107-.511.842.842,0,0,1,.967-.558.737.737,0,0,1,.537.279c.107.139-.054.372.161.325.161,0,.43-.233.376-.279a9.173,9.173,0,0,0-2.363-2,12.786,12.786,0,0,0-2.363,1.952c-.107.139.215.325.376.325.215,0,.107-.418.376-.511a1.2,1.2,0,0,1,.806-.046.762.762,0,0,1,.483.79c-.107.465-.7.651-1.182.6a2.188,2.188,0,0,1-1.45-.883,4.063,4.063,0,0,1-2.632.929.783.783,0,0,1-.537-.325.685.685,0,0,1,.269-.976.944.944,0,0,1,1.128.232,1.991,1.991,0,0,0,1.074-.651c.107-.139-.054-.465-.215-.418a1.518,1.518,0,0,1-.913.139.763.763,0,0,1-.483-.79.833.833,0,0,1,1.021-.558,1.964,1.964,0,0,1,.7.372c.268.279.268.651.483.93l2.256-1.813c-2.793-2.324-6.768-3.207-10.581-3.3a16.134,16.134,0,0,1,6.66.325Z" transform="translate(255.09 -361.948)" fill="#565a5f"/>
    </g>
    <text id="KSA" transform="translate(1 28.25)" fill="#565a5f" font-size="10" font-family="Poppins-Bold, Poppins" font-weight="700"><tspan x="0" y="0">KSA</tspan></text>
  </g>
</svg>
