<svg xmlns="http://www.w3.org/2000/svg" width="19.171" height="19.872" viewBox="0 0 19.171 19.872">
  <g id="Group_854" data-name="Group 854" transform="translate(-7.36 -6.46)">
    <path id="Path_718" data-name="Path 718" d="M23.287,18.679a4.468,4.468,0,0,1,.727.062V8.712A2.257,2.257,0,0,0,21.762,6.46H9.612A2.257,2.257,0,0,0,7.36,8.712V21.827a2.257,2.257,0,0,0,2.252,2.252H19a4.394,4.394,0,0,1,4.291-5.4ZM10.636,9.343h10.1a.584.584,0,1,1,0,1.167h-10.1a.584.584,0,1,1,0-1.167Zm0,3.563h10.1a.584.584,0,1,1,0,1.167h-10.1a.584.584,0,1,1,0-1.167Zm0,3.56h10.1a.584.584,0,1,1,0,1.167h-10.1a.584.584,0,1,1,0-1.167ZM17.907,21.2H10.636a.584.584,0,1,1,0-1.167h7.271a.584.584,0,1,1,0,1.167Zm5.38-1.35a3.243,3.243,0,1,0,3.244,3.241A3.243,3.243,0,0,0,23.287,19.846Zm1.548,3.824H23.287a.584.584,0,0,1-.584-.584V21.309a.584.584,0,0,1,1.167,0V22.5h.965a.584.584,0,1,1,0,1.167Z" transform="translate(0 0)" fill="#fff"/>
  </g>
</svg>
