<svg xmlns="http://www.w3.org/2000/svg" width="16.475" height="24.485" viewBox="0 0 16.475 24.485">
  <g id="Group_849" data-name="Group 849" transform="translate(-3.555 6.958)">
    <g id="Group_45" data-name="Group 45" transform="translate(3.555 -6.958)">
      <path id="Path_99" data-name="Path 99" d="M7.365,0a4.524,4.524,0,1,0,4.523,4.523A4.533,4.533,0,0,0,7.365,0Zm0,9.913a5.985,5.985,0,0,0-5.98,5.98v5.049a.768.768,0,0,0,.763.769H6.3a6.671,6.671,0,0,1-.483-2.487,6.806,6.806,0,0,1,6.437-6.764A5.967,5.967,0,0,0,7.365,9.913Zm5.237,4.06a5.256,5.256,0,1,0,5.257,5.252A5.263,5.263,0,0,0,12.6,13.974Zm-.327,2.687h.654a.328.328,0,0,1,.327.327V17.2a2.176,2.176,0,0,1,.318.133l.15-.147a.325.325,0,0,1,.46,0h0l.463.463a.328.328,0,0,1,0,.463h0l-.15.147a1.843,1.843,0,0,1,.136.321h.205a.328.328,0,0,1,.33.324v.656a.329.329,0,0,1-.33.327h-.208a2.176,2.176,0,0,1-.133.318l.15.147a.328.328,0,0,1,0,.463h0l-.463.466a.328.328,0,0,1-.463,0h0l-.147-.15a1.928,1.928,0,0,1-.321.133v.208a.328.328,0,0,1-.327.327h-.654a.328.328,0,0,1-.327-.327v-.208a2.176,2.176,0,0,1-.318-.133l-.15.15a.325.325,0,0,1-.46,0h0l-.466-.466a.325.325,0,0,1,0-.46v0l.15-.145a2.225,2.225,0,0,1-.136-.321h-.205a.329.329,0,0,1-.33-.327h0V18.9a.326.326,0,0,1,.327-.327h.208a2.6,2.6,0,0,1,.136-.321l-.15-.147a.325.325,0,0,1,0-.46v0l.466-.463a.325.325,0,0,1,.46,0h0l.147.147a2.209,2.209,0,0,1,.321-.133V16.99a.329.329,0,0,1,.327-.33Zm.327,1.2a1.368,1.368,0,1,0,0,2.736h0a1.368,1.368,0,1,0,0-2.736Z" transform="translate(-1.385)" fill="#fff"/>
    </g>
  </g>
</svg>
