<svg xmlns="http://www.w3.org/2000/svg" width="24.18" height="647.312" viewBox="0 0 24.18 647.312">
  <g id="Group_696" data-name="Group 696" transform="translate(-51.289 -164.357)">
    <g id="Group_643" data-name="Group 643" transform="translate(27.938 58.026)">
      <g id="Group_602" data-name="Group 602" transform="translate(22.615 167.355)">
        <path id="Path_99" data-name="Path 99" d="M8.224,0A5.174,5.174,0,1,0,13.4,5.172,5.184,5.184,0,0,0,8.224,0Zm0,11.337a6.844,6.844,0,0,0-6.839,6.839V23.95a.878.878,0,0,0,.873.88H7.007a7.629,7.629,0,0,1-.552-2.844,7.783,7.783,0,0,1,7.362-7.735A6.823,6.823,0,0,0,8.224,11.337Zm5.989,4.643a6.011,6.011,0,1,0,6.012,6.006A6.019,6.019,0,0,0,14.213,15.98Zm-.374,3.072h.747a.375.375,0,0,1,.374.374v.238a2.489,2.489,0,0,1,.364.152l.172-.169a.371.371,0,0,1,.526,0h0l.529.529a.375.375,0,0,1,0,.529h0l-.172.169a2.108,2.108,0,0,1,.155.367h.235a.375.375,0,0,1,.377.37v.751a.376.376,0,0,1-.377.374h-.238a2.489,2.489,0,0,1-.152.364l.172.169a.375.375,0,0,1,0,.529h0l-.529.532a.375.375,0,0,1-.529,0h0l-.169-.172a2.2,2.2,0,0,1-.367.152v.238a.375.375,0,0,1-.374.374h-.747a.375.375,0,0,1-.374-.374V24.31a2.488,2.488,0,0,1-.364-.152l-.172.172a.371.371,0,0,1-.526,0h0l-.532-.532a.371.371,0,0,1,0-.526v0l.172-.165a2.544,2.544,0,0,1-.155-.367h-.235a.376.376,0,0,1-.377-.374h0v-.747a.373.373,0,0,1,.374-.374h.238a2.979,2.979,0,0,1,.155-.367l-.172-.169a.371.371,0,0,1,0-.526v0l.532-.529a.371.371,0,0,1,.526,0h0l.169.169a2.527,2.527,0,0,1,.367-.152v-.235a.376.376,0,0,1,.374-.377Zm.374,1.372a1.564,1.564,0,1,0,0,3.128h0a1.564,1.564,0,1,0,0-3.128Z" transform="translate(0)" fill="#d1d1d1"/>
      </g>
    </g>
    <g id="Group_644" data-name="Group 644" transform="translate(27.938 81.026)">
      <g id="Group_603" data-name="Group 603" transform="translate(18 201.593)">
        <path id="Path_97" data-name="Path 97" d="M6,19.12h8.312l1.831,2.46h9.608v1.767H8.3L6,31.691Z" transform="translate(0 0)" fill="#d1d1d1"/>
        <path id="Path_98" data-name="Path 98" d="M26.211,49.727H6.49L9.323,39.48H29.031Z" transform="translate(-0.364 -15.321)" fill="#d1d1d1"/>
      </g>
    </g>
    <g id="Group_689" data-name="Group 689" transform="translate(-2.312 206.668)">
      <g id="noun_Login_3582609" transform="translate(52.749 511.788)">
        <path id="Path_664" data-name="Path 664" d="M24.168,6.181V20.036a2.383,2.383,0,0,1-1.821,2.375h0l-7.126,1.742a2.238,2.238,0,0,1-1.979-.475,2.361,2.361,0,0,1-.95-1.9H5.959A2.333,2.333,0,0,1,3.583,19.4v-.792a.748.748,0,0,1,.792-.792.748.748,0,0,1,.792.792v.713a.861.861,0,0,0,.713.871h6.413V5.943H5.959a.748.748,0,0,0-.792.792v.792a.748.748,0,0,1-.792.792.748.748,0,0,1-.792-.792V6.814a2.386,2.386,0,0,1,2.3-2.454h6.413a2.361,2.361,0,0,1,.95-1.9,2.238,2.238,0,0,1,1.979-.475l7.126,1.742A2.473,2.473,0,0,1,24.168,6.181Zm-19,9.263v.792a.793.793,0,0,0,.792.792.6.6,0,0,0,.4-.158L11.1,13.7a.911.911,0,0,0,0-1.346L6.354,9.189a.779.779,0,0,0-1.108.238c0,.158-.079.317-.079.475v.792H3.583A1.588,1.588,0,0,0,2,12.277V13.86a1.588,1.588,0,0,0,1.583,1.583Z" fill="#d1d1d1"/>
      </g>
    </g>
    <g id="Group_690" data-name="Group 690" transform="translate(-2.312 191.668)">
      <g id="noun_FAQ_3237506" transform="translate(-39.805 514.914)">
        <path id="Path_665" data-name="Path 665" d="M15.705,1H5.325A4.1,4.1,0,0,0,1,4.829v6.127a3.984,3.984,0,0,0,3.46,3.753v2.374a.759.759,0,0,0,.457.675.961.961,0,0,0,.888-.038l4.969-2.935h4.931a4.1,4.1,0,0,0,4.325-3.829V4.829A4.1,4.1,0,0,0,15.705,1Zm-5.19,11.488a.772.772,0,1,1,.865-.766A.82.82,0,0,1,10.515,12.488Zm1.534-5.039a1.294,1.294,0,0,0-.669,1.009v.967a.871.871,0,0,1-1.73,0V8.457a2.736,2.736,0,0,1,1.376-2.243.714.714,0,0,0,.278-.931.9.9,0,0,0-.97-.436A.794.794,0,0,0,9.65,5.6a.82.82,0,0,1-.865.766A.82.82,0,0,1,7.92,5.6,2.383,2.383,0,0,1,9.972,3.348a2.694,2.694,0,0,1,2.911,1.307,2.142,2.142,0,0,1-.834,2.794Z" transform="translate(94.374 -54.626)" fill="#d1d1d1"/>
      </g>
    </g>
    <g id="Group_642" data-name="Group 642" transform="translate(27.938 40.026)">
      <g id="Group_40" data-name="Group 40" transform="translate(24.01 124.331)">
        <path id="Path_96" data-name="Path 96" d="M14.689,6.78H5.65a1.13,1.13,0,0,1,0-2.26h9.039a1.13,1.13,0,1,1,0,2.26m0,4.52H5.65a1.13,1.13,0,1,1,0-2.26h9.039a1.13,1.13,0,1,1,0,2.26m-3.39,4.52H5.65a1.13,1.13,0,1,1,0-2.26H11.3a1.13,1.13,0,1,1,0,2.26M16.949,0H3.39A3.4,3.4,0,0,0,0,3.39V16.949a3.4,3.4,0,0,0,3.39,3.39H16.949a3.4,3.4,0,0,0,3.39-3.39V3.39A3.4,3.4,0,0,0,16.949,0" fill="#d1d1d1" fill-rule="evenodd"/>
      </g>
    </g>
    <g id="Group_693" data-name="Group 693" transform="translate(-2.312 51.521)">
      <path id="Icon_metro-security" data-name="Icon metro-security" d="M15.768,3.856,6.427,8.008v6.227c0,5.765,3.98,11.142,9.341,12.454,5.361-1.313,9.341-6.689,9.341-12.454V8.008Zm0,11.406h7.265c-.55,4.276-3.4,8.085-7.265,9.273V15.273H8.5V9.357l7.265-3.228v9.133Z" transform="translate(51.144 310.85)" fill="#d1d1d1"/>
    </g>
    <g id="Group_692" data-name="Group 692" transform="translate(-2.312 64.538)">
      <g id="noun_contact_3842558" transform="translate(-118.914 309.171)">
        <path id="Icon_awesome-handshake" data-name="Icon awesome-handshake" d="M16.424,4.5H13.178a1.209,1.209,0,0,0-.816.317l-3.714,3.4s-.008.011-.011.015a1.5,1.5,0,0,0-.079,2.116,1.576,1.576,0,0,0,2.12.1s.011,0,.015-.008l3.019-2.766a.6.6,0,0,1,.816.892l-.986.9,5.5,4.466a2.722,2.722,0,0,1,.3.291V6.918L17.278,4.855a1.2,1.2,0,0,0-.854-.355Zm4.13,2.426v8.459a1.208,1.208,0,0,0,1.209,1.209H24.18V6.926Zm1.814,8.459a.6.6,0,1,1,.6-.6A.606.606,0,0,1,22.367,15.385ZM0,16.59H2.418a1.208,1.208,0,0,0,1.209-1.209V6.926H0Zm1.814-2.414a.6.6,0,1,1-.6.6A.606.606,0,0,1,1.814,14.176Zm16.469.7L12.642,10.3l-1.133,1.039A2.72,2.72,0,1,1,7.832,7.33L10.923,4.5H7.757a1.207,1.207,0,0,0-.854.355L4.836,6.918v8.459h.691l3.419,3.094a2.418,2.418,0,0,0,3.4-.351l.008-.008.676.586a1.4,1.4,0,0,0,1.976-.2l1.186-1.458.2.166a1.207,1.207,0,0,0,1.7-.178l.359-.442a1.211,1.211,0,0,0-.174-1.7Z" transform="translate(172.514 63.163)" fill="#d1d1d1"/>
      </g>
    </g>
    <g id="Group_691" data-name="Group 691" transform="translate(-2.312 97.004)">
      <path id="Icon_awesome-info-circle" data-name="Icon awesome-info-circle" d="M10.077.563a9.515,9.515,0,1,0,9.515,9.515A9.516,9.516,0,0,0,10.077.563Zm0,4.22A1.611,1.611,0,1,1,8.466,6.394,1.611,1.611,0,0,1,10.077,4.783Zm2.148,9.745a.46.46,0,0,1-.46.46H8.389a.46.46,0,0,1-.46-.46v-.921a.46.46,0,0,1,.46-.46h.46V10.691h-.46a.46.46,0,0,1-.46-.46V9.31a.46.46,0,0,1,.46-.46h2.455a.46.46,0,0,1,.46.46v3.837h.46a.46.46,0,0,1,.46.46Z" transform="translate(56.953 413.269)" fill="#d1d1d1"/>
    </g>
    <g id="Group_881" data-name="Group 881" transform="translate(-2.312 275.668)">
      <g id="noun_Login_3582609-2" data-name="noun_Login_3582609" transform="translate(78.917 537.925) rotate(180)">
        <path id="Path_664-2" data-name="Path 664" d="M24.168,6.181V20.036a2.383,2.383,0,0,1-1.821,2.375h0l-7.126,1.742a2.238,2.238,0,0,1-1.979-.475,2.361,2.361,0,0,1-.95-1.9H5.959A2.333,2.333,0,0,1,3.583,19.4v-.792a.748.748,0,0,1,.792-.792.748.748,0,0,1,.792.792v.713a.861.861,0,0,0,.713.871h6.413V5.943H5.959a.748.748,0,0,0-.792.792v.792a.748.748,0,0,1-.792.792.748.748,0,0,1-.792-.792V6.814a2.386,2.386,0,0,1,2.3-2.454h6.413a2.361,2.361,0,0,1,.95-1.9,2.238,2.238,0,0,1,1.979-.475l7.126,1.742A2.473,2.473,0,0,1,24.168,6.181Zm-19,9.263v.792a.793.793,0,0,0,.792.792.6.6,0,0,0,.4-.158L11.1,13.7a.911.911,0,0,0,0-1.346L6.354,9.189a.779.779,0,0,0-1.108.238c0,.158-.079.317-.079.475v.792H3.583A1.588,1.588,0,0,0,2,12.277V13.86a1.588,1.588,0,0,0,1.583,1.583Z" fill="#d1d1d1"/>
      </g>
    </g>
    <g id="Group_957" data-name="Group 957" transform="translate(-2.312 103.668)">
      <g id="Group_960" data-name="Group 960" transform="translate(53 471.516)">
        <g id="Group_958" data-name="Group 958" transform="translate(3.97 2.877)">
          <path id="Path_782" data-name="Path 782" d="M11.87,2.877a1.46,1.46,0,0,0-1.393,1.512v.655C9.943,5.236,6.3,6.606,5.83,10.373c0,.019,0,.039,0,.06v6.779L4.105,18.933a.466.466,0,0,0,0,.659.473.473,0,0,0,.323.135H19.3a.466.466,0,0,0,.33-.794l-1.723-1.722V10.432c0-.021,0-.04,0-.06-.471-3.766-4.112-5.136-4.645-5.328V4.389A1.46,1.46,0,0,0,11.87,2.877Z" transform="translate(-3.97 -2.877)" fill="#d1d1d1"/>
          <path id="Path_783" data-name="Path 783" d="M11.87,2.877a1.46,1.46,0,0,0-1.393,1.512v.655C9.943,5.236,6.3,6.606,5.83,10.373c0,.019,0,.039,0,.06v6.779L4.105,18.933a.466.466,0,0,0,0,.659.473.473,0,0,0,.323.135H19.3a.466.466,0,0,0,.33-.794l-1.723-1.722V10.432c0-.021,0-.04,0-.06-.471-3.766-4.112-5.136-4.645-5.328V4.389A1.46,1.46,0,0,0,11.87,2.877Z" transform="translate(-3.97 -2.877)" fill="#d1d1d1"/>
        </g>
        <g id="Group_959" data-name="Group 959" transform="translate(10.009 20.192)">
          <path id="Path_784" data-name="Path 784" d="M7.875,12.734a.467.467,0,0,0-.467.464,1.859,1.859,0,1,0,3.719,0,.465.465,0,0,0-.466-.464Z" transform="translate(-7.408 -12.734)" fill="#d1d1d1"/>
          <path id="Path_785" data-name="Path 785" d="M7.673,13a1.394,1.394,0,1,0,2.788,0Z" transform="translate(-7.207 -12.534)" fill="#d1d1d1"/>
        </g>
      </g>
    </g>
  </g>
</svg>
