<svg xmlns="http://www.w3.org/2000/svg" xmlns:xlink="http://www.w3.org/1999/xlink" width="39.744" height="29.835" viewBox="0 0 39.744 29.835">
  <defs>
    <clipPath id="clip-path">
      <path id="Path_665" data-name="Path 665" d="M58.434,167.266a3.729,3.729,0,0,1-.426,2.208,3.807,3.807,0,0,1-3.466,1.924,15.822,15.822,0,0,0-3.089.149,3.961,3.961,0,0,0-2.6,2.509c-.326.967-.168,4.416-.177,5.7,3.567-.035,2.2-.934,2.564-4.527a1.359,1.359,0,0,1,1.042-1.231,28.007,28.007,0,0,0,3.375-.09,5.928,5.928,0,0,0,2.128-.706,6.155,6.155,0,0,0,3.259-5.786,6.041,6.041,0,0,0-2.426-4.638A6.1,6.1,0,0,0,56.25,161.6a11.456,11.456,0,0,0-3.263-.215l-4.311,0c.006.911-.193,2,.792,2.443a14.962,14.962,0,0,0,3.143.1h1.268l1.511.163a3.708,3.708,0,0,1,3.044,3.171" transform="translate(-48.646 -161.372)" fill="none" clip-rule="evenodd"/>
    </clipPath>
    <linearGradient id="linear-gradient" x1="0.024" y1="0.497" x2="0.993" y2="0.503" gradientUnits="objectBoundingBox">
      <stop offset="0" stop-color="#500b7f"/>
      <stop offset="1" stop-color="#d50880"/>
    </linearGradient>
    <clipPath id="clip-path-2">
      <path id="Path_666" data-name="Path 666" d="M197.439,168.157l.009,2.364a1.215,1.215,0,0,1-1.279,1.072l-4.623-.024a1.312,1.312,0,0,1-1.316-1.582c.118-.733.594-.948,1.213-1.151a44.845,44.845,0,0,1,6-.678m-.539,5.917a3.892,3.892,0,0,0,3-2.786,20.559,20.559,0,0,0-.043-6.821,4.5,4.5,0,0,0-.758-1.312,3.756,3.756,0,0,0-2.121-1.373l-1.568-.187-1.265,0h-4.734c.009,2.615.342,2.555,2.857,2.568l1.689,0,1.441,0c1,.079,1.945.193,2.049,1.4l-1.069.161-3.091.359-1.584.2a5.08,5.08,0,0,0-2.784,1.072,3.732,3.732,0,0,0-1.355,2.487,3.49,3.49,0,0,0,.808,2.923,3.688,3.688,0,0,0,2.207,1.3A29.8,29.8,0,0,0,196.9,174.073Z" transform="translate(-187.51 -161.595)" fill="none" clip-rule="evenodd"/>
    </clipPath>
    <linearGradient id="linear-gradient-2" x1="0.011" y1="0.5" x2="0.992" y2="0.5" gradientUnits="objectBoundingBox">
      <stop offset="0" stop-color="#ee097e"/>
      <stop offset="1" stop-color="#fc5a18"/>
    </linearGradient>
    <clipPath id="clip-path-3">
      <path id="Path_667" data-name="Path 667" d="M342.622,173.818a16.418,16.418,0,0,0,1.658-.826l-.173,1.374a4.055,4.055,0,0,1-2.245,2.551,5.784,5.784,0,0,1-2.254.365c-2.484.033-2.816-.05-2.819,2.559,2.687-.051,5.832.4,7.9-1.7a6.257,6.257,0,0,0,2.134-3.963c.111-.889.028-11.239.032-12.7-1.568.018-2.554-.124-2.576,1.606-.017,1.374,0,2.768,0,4.145,0,2.512-1.283,4.4-4.014,4.333-2.529-.277-3.435-2.257-3.453-4.521-.042-5.121.635-5.579-2.571-5.558q-.006,2.684-.006,5.369a6.929,6.929,0,0,0,1.034,4.334,6.219,6.219,0,0,0,7.348,2.635" transform="translate(-334.24 -161.476)" fill="none" clip-rule="evenodd"/>
    </clipPath>
  </defs>
  <g id="Group_643" data-name="Group 643" transform="translate(-46.239 -39.685)">
    <path id="Path_664" data-name="Path 664" d="M58.792,39.687h5.452v.858a.875.875,0,0,1-.8.88H60.627v7.411H58.792V41.425H55.175v-.938a.8.8,0,0,1,.8-.8Zm14.56,9.239c.028-2.248-.707-1.791-4.24-1.779-3.254.011-4.112-3.177-2.276-4.95,1.13-1.09,3.254-.764,5.293-.766,1.209,0,1.327-.567,1.227-1.745l-4.637,0a5.051,5.051,0,0,0-1.94.383,4.586,4.586,0,0,0-.013,8.449,6.133,6.133,0,0,0,2.306.4Zm-26.872-.008,1.742,0c1.315,0,2.691.027,3.988-.006a3.9,3.9,0,0,0,1.707-.342,2.634,2.634,0,0,0-.39-4.793c-1.268-.43-4.539-.309-5.124-.712a.941.941,0,0,1-.114-1.343,1.617,1.617,0,0,1,1.01-.313c.9-.079,2.125.017,2.686.017,1.748,0,2.255.221,2.15-1.742-1.279.014-2.564,0-3.844,0-1.421,0-2.369-.072-3.239.7a2.619,2.619,0,0,0,1.654,4.528c1.137.146,2.353.279,3.478.384.659.061,1.1.129,1.2.794.109.689-.28,1.035-.923,1.057C47.9,47.3,46.34,46.442,46.479,48.918Z" fill="#54006a" fill-rule="evenodd"/>
    <g id="Group_638" data-name="Group 638" transform="translate(46.466 51.137)">
      <g id="Group_637" data-name="Group 637" transform="translate(0 0)" clip-path="url(#clip-path)">
        <rect id="Rectangle_98" data-name="Rectangle 98" width="12.653" height="18.459" transform="translate(-0.162 -0.08)" fill="url(#linear-gradient)"/>
      </g>
    </g>
    <g id="Group_640" data-name="Group 640" transform="translate(59.534 51.158)">
      <g id="Group_639" data-name="Group 639" transform="translate(0 0)" clip-path="url(#clip-path-2)">
        <rect id="Rectangle_99" data-name="Rectangle 99" width="12.896" height="12.772" transform="translate(-0.143 0)" fill="url(#linear-gradient-2)"/>
      </g>
    </g>
    <g id="Group_642" data-name="Group 642" transform="translate(73.342 51.146)">
      <g id="Group_641" data-name="Group 641" transform="translate(0)" clip-path="url(#clip-path-3)">
        <rect id="Rectangle_100" data-name="Rectangle 100" width="0.025" height="18.889" transform="translate(-0.001 -0.124)" fill="#fe7304"/>
        <rect id="Rectangle_101" data-name="Rectangle 101" width="0.074" height="18.889" transform="translate(0 -0.124)" fill="#fe7304"/>
        <rect id="Rectangle_102" data-name="Rectangle 102" width="0.074" height="18.889" transform="translate(0.049 -0.124)" fill="#fe7404"/>
        <rect id="Rectangle_103" data-name="Rectangle 103" width="0.074" height="18.889" transform="translate(0.099 -0.124)" fill="#fe7405"/>
        <rect id="Rectangle_104" data-name="Rectangle 104" width="0.074" height="18.889" transform="translate(0.148 -0.124)" fill="#fe7405"/>
        <rect id="Rectangle_105" data-name="Rectangle 105" width="0.074" height="18.889" transform="translate(0.197 -0.124)" fill="#fe7405"/>
        <rect id="Rectangle_106" data-name="Rectangle 106" width="0.074" height="18.889" transform="translate(0.247 -0.124)" fill="#fe7505"/>
        <rect id="Rectangle_107" data-name="Rectangle 107" width="0.074" height="18.889" transform="translate(0.296 -0.124)" fill="#fe7506"/>
        <rect id="Rectangle_108" data-name="Rectangle 108" width="0.074" height="18.889" transform="translate(0.346 -0.124)" fill="#fe7506"/>
        <rect id="Rectangle_109" data-name="Rectangle 109" width="0.074" height="18.889" transform="translate(0.395 -0.124)" fill="#fd7506"/>
        <rect id="Rectangle_110" data-name="Rectangle 110" width="0.074" height="18.889" transform="translate(0.444 -0.124)" fill="#fd7606"/>
        <rect id="Rectangle_111" data-name="Rectangle 111" width="0.074" height="18.889" transform="translate(0.494 -0.124)" fill="#fd7607"/>
        <rect id="Rectangle_112" data-name="Rectangle 112" width="0.074" height="18.889" transform="translate(0.543 -0.124)" fill="#fd7607"/>
        <rect id="Rectangle_113" data-name="Rectangle 113" width="0.074" height="18.889" transform="translate(0.592 -0.124)" fill="#fd7607"/>
        <rect id="Rectangle_114" data-name="Rectangle 114" width="0.074" height="18.889" transform="translate(0.642 -0.124)" fill="#fd7707"/>
        <rect id="Rectangle_115" data-name="Rectangle 115" width="0.074" height="18.889" transform="translate(0.691 -0.124)" fill="#fd7708"/>
        <rect id="Rectangle_116" data-name="Rectangle 116" width="0.074" height="18.889" transform="translate(0.741 -0.124)" fill="#fd7708"/>
        <rect id="Rectangle_117" data-name="Rectangle 117" width="0.074" height="18.889" transform="translate(0.79 -0.124)" fill="#fd7808"/>
        <rect id="Rectangle_118" data-name="Rectangle 118" width="0.074" height="18.889" transform="translate(0.839 -0.124)" fill="#fd7808"/>
        <rect id="Rectangle_119" data-name="Rectangle 119" width="0.074" height="18.889" transform="translate(0.889 -0.124)" fill="#fd7809"/>
        <rect id="Rectangle_120" data-name="Rectangle 120" width="0.074" height="18.889" transform="translate(0.938 -0.124)" fill="#fd7809"/>
        <rect id="Rectangle_121" data-name="Rectangle 121" width="0.074" height="18.889" transform="translate(0.988 -0.124)" fill="#fd7909"/>
        <rect id="Rectangle_122" data-name="Rectangle 122" width="0.074" height="18.889" transform="translate(1.037 -0.124)" fill="#fd7909"/>
        <rect id="Rectangle_123" data-name="Rectangle 123" width="0.074" height="18.889" transform="translate(1.086 -0.124)" fill="#fd790a"/>
        <rect id="Rectangle_124" data-name="Rectangle 124" width="0.074" height="18.889" transform="translate(1.136 -0.124)" fill="#fd790a"/>
        <rect id="Rectangle_125" data-name="Rectangle 125" width="0.074" height="18.889" transform="translate(1.185 -0.124)" fill="#fd7a0a"/>
        <rect id="Rectangle_126" data-name="Rectangle 126" width="0.074" height="18.889" transform="translate(1.234 -0.124)" fill="#fc7a0a"/>
        <rect id="Rectangle_127" data-name="Rectangle 127" width="0.074" height="18.889" transform="translate(1.284 -0.124)" fill="#fc7a0b"/>
        <rect id="Rectangle_128" data-name="Rectangle 128" width="0.074" height="18.889" transform="translate(1.333 -0.124)" fill="#fc7a0b"/>
        <rect id="Rectangle_129" data-name="Rectangle 129" width="0.074" height="18.889" transform="translate(1.383 -0.124)" fill="#fc7b0b"/>
        <rect id="Rectangle_130" data-name="Rectangle 130" width="0.074" height="18.889" transform="translate(1.432 -0.124)" fill="#fc7b0b"/>
        <rect id="Rectangle_131" data-name="Rectangle 131" width="0.074" height="18.889" transform="translate(1.481 -0.124)" fill="#fc7b0b"/>
        <rect id="Rectangle_132" data-name="Rectangle 132" width="0.074" height="18.889" transform="translate(1.531 -0.124)" fill="#fc7c0c"/>
        <rect id="Rectangle_133" data-name="Rectangle 133" width="0.074" height="18.889" transform="translate(1.58 -0.124)" fill="#fc7c0c"/>
        <rect id="Rectangle_134" data-name="Rectangle 134" width="0.074" height="18.889" transform="translate(1.629 -0.124)" fill="#fc7c0c"/>
        <rect id="Rectangle_135" data-name="Rectangle 135" width="0.074" height="18.889" transform="translate(1.679 -0.124)" fill="#fc7c0c"/>
        <rect id="Rectangle_136" data-name="Rectangle 136" width="0.074" height="18.889" transform="translate(1.728 -0.124)" fill="#fc7d0d"/>
        <rect id="Rectangle_137" data-name="Rectangle 137" width="0.074" height="18.889" transform="translate(1.778 -0.124)" fill="#fc7d0d"/>
        <rect id="Rectangle_138" data-name="Rectangle 138" width="0.074" height="18.889" transform="translate(1.827 -0.124)" fill="#fc7d0d"/>
        <rect id="Rectangle_139" data-name="Rectangle 139" width="0.074" height="18.889" transform="translate(1.876 -0.124)" fill="#fc7d0d"/>
        <rect id="Rectangle_140" data-name="Rectangle 140" width="0.074" height="18.889" transform="translate(1.926 -0.124)" fill="#fc7e0e"/>
        <rect id="Rectangle_141" data-name="Rectangle 141" width="0.074" height="18.889" transform="translate(1.975 -0.124)" fill="#fc7e0e"/>
        <rect id="Rectangle_142" data-name="Rectangle 142" width="0.074" height="18.889" transform="translate(2.024 -0.124)" fill="#fc7e0e"/>
        <rect id="Rectangle_143" data-name="Rectangle 143" width="0.074" height="18.889" transform="translate(2.074 -0.124)" fill="#fb7e0e"/>
        <rect id="Rectangle_144" data-name="Rectangle 144" width="0.074" height="18.889" transform="translate(2.123 -0.124)" fill="#fb7f0f"/>
        <rect id="Rectangle_145" data-name="Rectangle 145" width="0.074" height="18.889" transform="translate(2.173 -0.124)" fill="#fb7f0f"/>
        <rect id="Rectangle_146" data-name="Rectangle 146" width="0.074" height="18.889" transform="translate(2.222 -0.124)" fill="#fb7f0f"/>
        <rect id="Rectangle_147" data-name="Rectangle 147" width="0.074" height="18.889" transform="translate(2.271 -0.124)" fill="#fb800f"/>
        <rect id="Rectangle_148" data-name="Rectangle 148" width="0.074" height="18.889" transform="translate(2.321 -0.124)" fill="#fb8010"/>
        <rect id="Rectangle_149" data-name="Rectangle 149" width="0.074" height="18.889" transform="translate(2.37 -0.124)" fill="#fb8010"/>
        <rect id="Rectangle_150" data-name="Rectangle 150" width="0.074" height="18.889" transform="translate(2.419 -0.124)" fill="#fb8010"/>
        <rect id="Rectangle_151" data-name="Rectangle 151" width="0.074" height="18.889" transform="translate(2.469 -0.124)" fill="#fb8110"/>
        <rect id="Rectangle_152" data-name="Rectangle 152" width="0.074" height="18.889" transform="translate(2.518 -0.124)" fill="#fb8111"/>
        <rect id="Rectangle_153" data-name="Rectangle 153" width="0.074" height="18.889" transform="translate(2.568 -0.124)" fill="#fb8111"/>
        <rect id="Rectangle_154" data-name="Rectangle 154" width="0.074" height="18.889" transform="translate(2.617 -0.124)" fill="#fb8111"/>
        <rect id="Rectangle_155" data-name="Rectangle 155" width="0.074" height="18.889" transform="translate(2.666 -0.124)" fill="#fb8211"/>
        <rect id="Rectangle_156" data-name="Rectangle 156" width="0.074" height="18.889" transform="translate(2.716 -0.124)" fill="#fb8212"/>
        <rect id="Rectangle_157" data-name="Rectangle 157" width="0.074" height="18.889" transform="translate(2.765 -0.124)" fill="#fb8212"/>
        <rect id="Rectangle_158" data-name="Rectangle 158" width="0.074" height="18.889" transform="translate(2.815 -0.124)" fill="#fb8212"/>
        <rect id="Rectangle_159" data-name="Rectangle 159" width="0.074" height="18.889" transform="translate(2.864 -0.124)" fill="#fa8312"/>
        <rect id="Rectangle_160" data-name="Rectangle 160" width="0.074" height="18.889" transform="translate(2.913 -0.124)" fill="#fa8312"/>
        <rect id="Rectangle_161" data-name="Rectangle 161" width="0.074" height="18.889" transform="translate(2.963 -0.124)" fill="#fa8313"/>
        <rect id="Rectangle_162" data-name="Rectangle 162" width="0.074" height="18.889" transform="translate(3.012 -0.124)" fill="#fa8313"/>
        <rect id="Rectangle_163" data-name="Rectangle 163" width="0.074" height="18.889" transform="translate(3.061 -0.124)" fill="#fa8413"/>
        <rect id="Rectangle_164" data-name="Rectangle 164" width="0.074" height="18.889" transform="translate(3.111 -0.124)" fill="#fa8413"/>
        <rect id="Rectangle_165" data-name="Rectangle 165" width="0.074" height="18.889" transform="translate(3.16 -0.124)" fill="#fa8414"/>
        <rect id="Rectangle_166" data-name="Rectangle 166" width="0.074" height="18.889" transform="translate(3.21 -0.124)" fill="#fa8514"/>
        <rect id="Rectangle_167" data-name="Rectangle 167" width="0.074" height="18.889" transform="translate(3.259 -0.124)" fill="#fa8514"/>
        <rect id="Rectangle_168" data-name="Rectangle 168" width="0.074" height="18.889" transform="translate(3.308 -0.124)" fill="#fa8514"/>
        <rect id="Rectangle_169" data-name="Rectangle 169" width="0.074" height="18.889" transform="translate(3.358 -0.124)" fill="#fa8515"/>
        <rect id="Rectangle_170" data-name="Rectangle 170" width="0.074" height="18.889" transform="translate(3.407 -0.124)" fill="#fa8615"/>
        <rect id="Rectangle_171" data-name="Rectangle 171" width="0.074" height="18.889" transform="translate(3.456 -0.124)" fill="#fa8615"/>
        <rect id="Rectangle_172" data-name="Rectangle 172" width="0.074" height="18.889" transform="translate(3.506 -0.124)" fill="#fa8615"/>
        <rect id="Rectangle_173" data-name="Rectangle 173" width="0.074" height="18.889" transform="translate(3.555 -0.124)" fill="#fa8616"/>
        <rect id="Rectangle_174" data-name="Rectangle 174" width="0.074" height="18.889" transform="translate(3.605 -0.124)" fill="#fa8716"/>
        <rect id="Rectangle_175" data-name="Rectangle 175" width="0.074" height="18.889" transform="translate(3.654 -0.124)" fill="#fa8716"/>
        <rect id="Rectangle_176" data-name="Rectangle 176" width="0.074" height="18.889" transform="translate(3.703 -0.124)" fill="#f98716"/>
        <rect id="Rectangle_177" data-name="Rectangle 177" width="0.074" height="18.889" transform="translate(3.753 -0.124)" fill="#f98717"/>
        <rect id="Rectangle_178" data-name="Rectangle 178" width="0.074" height="18.889" transform="translate(3.802 -0.124)" fill="#f98817"/>
        <rect id="Rectangle_179" data-name="Rectangle 179" width="0.074" height="18.889" transform="translate(3.851 -0.124)" fill="#f98817"/>
        <rect id="Rectangle_180" data-name="Rectangle 180" width="0.074" height="18.889" transform="translate(3.901 -0.124)" fill="#f98817"/>
        <rect id="Rectangle_181" data-name="Rectangle 181" width="0.074" height="18.889" transform="translate(3.95 -0.124)" fill="#f98918"/>
        <rect id="Rectangle_182" data-name="Rectangle 182" width="0.074" height="18.889" transform="translate(4 -0.124)" fill="#f98918"/>
        <rect id="Rectangle_183" data-name="Rectangle 183" width="0.074" height="18.889" transform="translate(4.049 -0.124)" fill="#f98918"/>
        <rect id="Rectangle_184" data-name="Rectangle 184" width="0.074" height="18.889" transform="translate(4.098 -0.124)" fill="#f98918"/>
        <rect id="Rectangle_185" data-name="Rectangle 185" width="0.074" height="18.889" transform="translate(4.148 -0.124)" fill="#f98a19"/>
        <rect id="Rectangle_186" data-name="Rectangle 186" width="0.074" height="18.889" transform="translate(4.197 -0.124)" fill="#f98a19"/>
        <rect id="Rectangle_187" data-name="Rectangle 187" width="0.074" height="18.889" transform="translate(4.246 -0.124)" fill="#f98a19"/>
        <rect id="Rectangle_188" data-name="Rectangle 188" width="0.074" height="18.889" transform="translate(4.296 -0.124)" fill="#f98a19"/>
        <rect id="Rectangle_189" data-name="Rectangle 189" width="0.074" height="18.889" transform="translate(4.345 -0.124)" fill="#f98b1a"/>
        <rect id="Rectangle_190" data-name="Rectangle 190" width="0.074" height="18.889" transform="translate(4.395 -0.124)" fill="#f98b1a"/>
        <rect id="Rectangle_191" data-name="Rectangle 191" width="0.074" height="18.889" transform="translate(4.444 -0.124)" fill="#f98b1a"/>
        <rect id="Rectangle_192" data-name="Rectangle 192" width="0.074" height="18.889" transform="translate(4.493 -0.124)" fill="#f98b1a"/>
        <rect id="Rectangle_193" data-name="Rectangle 193" width="0.074" height="18.889" transform="translate(4.543 -0.124)" fill="#f88c1a"/>
        <rect id="Rectangle_194" data-name="Rectangle 194" width="0.074" height="18.889" transform="translate(4.592 -0.124)" fill="#f88c1b"/>
        <rect id="Rectangle_195" data-name="Rectangle 195" width="0.074" height="18.889" transform="translate(4.641 -0.124)" fill="#f88c1b"/>
        <rect id="Rectangle_196" data-name="Rectangle 196" width="0.074" height="18.889" transform="translate(4.691 -0.124)" fill="#f88d1b"/>
        <rect id="Rectangle_197" data-name="Rectangle 197" width="0.074" height="18.889" transform="translate(4.74 -0.124)" fill="#f88d1b"/>
        <rect id="Rectangle_198" data-name="Rectangle 198" width="0.074" height="18.889" transform="translate(4.79 -0.124)" fill="#f88d1c"/>
        <rect id="Rectangle_199" data-name="Rectangle 199" width="0.074" height="18.889" transform="translate(4.839 -0.124)" fill="#f88d1c"/>
        <rect id="Rectangle_200" data-name="Rectangle 200" width="0.074" height="18.889" transform="translate(4.888 -0.124)" fill="#f88e1c"/>
        <rect id="Rectangle_201" data-name="Rectangle 201" width="0.074" height="18.889" transform="translate(4.938 -0.124)" fill="#f88e1c"/>
        <rect id="Rectangle_202" data-name="Rectangle 202" width="0.074" height="18.889" transform="translate(4.987 -0.124)" fill="#f88e1d"/>
        <rect id="Rectangle_203" data-name="Rectangle 203" width="0.074" height="18.889" transform="translate(5.037 -0.124)" fill="#f88e1d"/>
        <rect id="Rectangle_204" data-name="Rectangle 204" width="0.074" height="18.889" transform="translate(5.086 -0.124)" fill="#f88f1d"/>
        <rect id="Rectangle_205" data-name="Rectangle 205" width="0.074" height="18.889" transform="translate(5.135 -0.124)" fill="#f88f1d"/>
        <rect id="Rectangle_206" data-name="Rectangle 206" width="0.074" height="18.889" transform="translate(5.185 -0.124)" fill="#f88f1e"/>
        <rect id="Rectangle_207" data-name="Rectangle 207" width="0.074" height="18.889" transform="translate(5.234 -0.124)" fill="#f88f1e"/>
        <rect id="Rectangle_208" data-name="Rectangle 208" width="0.074" height="18.889" transform="translate(5.283 -0.124)" fill="#f8901e"/>
        <rect id="Rectangle_209" data-name="Rectangle 209" width="0.074" height="18.889" transform="translate(5.333 -0.124)" fill="#f8901e"/>
        <rect id="Rectangle_210" data-name="Rectangle 210" width="0.074" height="18.889" transform="translate(5.382 -0.124)" fill="#f7901f"/>
        <rect id="Rectangle_211" data-name="Rectangle 211" width="0.074" height="18.889" transform="translate(5.432 -0.124)" fill="#f7911f"/>
        <rect id="Rectangle_212" data-name="Rectangle 212" width="0.074" height="18.889" transform="translate(5.481 -0.124)" fill="#f7911f"/>
        <rect id="Rectangle_213" data-name="Rectangle 213" width="0.074" height="18.889" transform="translate(5.53 -0.124)" fill="#f7911f"/>
        <rect id="Rectangle_214" data-name="Rectangle 214" width="0.074" height="18.889" transform="translate(5.58 -0.124)" fill="#f79120"/>
        <rect id="Rectangle_215" data-name="Rectangle 215" width="0.074" height="18.889" transform="translate(5.629 -0.124)" fill="#f79220"/>
        <rect id="Rectangle_216" data-name="Rectangle 216" width="0.074" height="18.889" transform="translate(5.678 -0.124)" fill="#f79220"/>
        <rect id="Rectangle_217" data-name="Rectangle 217" width="0.074" height="18.889" transform="translate(5.728 -0.124)" fill="#f79220"/>
        <rect id="Rectangle_218" data-name="Rectangle 218" width="0.074" height="18.889" transform="translate(5.777 -0.124)" fill="#f79221"/>
        <rect id="Rectangle_219" data-name="Rectangle 219" width="0.074" height="18.889" transform="translate(5.827 -0.124)" fill="#f79321"/>
        <rect id="Rectangle_220" data-name="Rectangle 220" width="0.074" height="18.889" transform="translate(5.876 -0.124)" fill="#f79321"/>
        <rect id="Rectangle_221" data-name="Rectangle 221" width="0.074" height="18.889" transform="translate(5.925 -0.124)" fill="#f79321"/>
        <rect id="Rectangle_222" data-name="Rectangle 222" width="0.074" height="18.889" transform="translate(5.975 -0.124)" fill="#f79321"/>
        <rect id="Rectangle_223" data-name="Rectangle 223" width="0.074" height="18.889" transform="translate(6.024 -0.124)" fill="#f79422"/>
        <rect id="Rectangle_224" data-name="Rectangle 224" width="0.074" height="18.889" transform="translate(6.073 -0.124)" fill="#f79422"/>
        <rect id="Rectangle_225" data-name="Rectangle 225" width="0.074" height="18.889" transform="translate(6.123 -0.124)" fill="#f79422"/>
        <rect id="Rectangle_226" data-name="Rectangle 226" width="0.074" height="18.889" transform="translate(6.172 -0.124)" fill="#f79522"/>
        <rect id="Rectangle_227" data-name="Rectangle 227" width="0.074" height="18.889" transform="translate(6.222 -0.124)" fill="#f69523"/>
        <rect id="Rectangle_228" data-name="Rectangle 228" width="0.074" height="18.889" transform="translate(6.271 -0.124)" fill="#f69523"/>
        <rect id="Rectangle_229" data-name="Rectangle 229" width="0.074" height="18.889" transform="translate(6.32 -0.124)" fill="#f69523"/>
        <rect id="Rectangle_230" data-name="Rectangle 230" width="0.074" height="18.889" transform="translate(6.37 -0.124)" fill="#f69623"/>
        <rect id="Rectangle_231" data-name="Rectangle 231" width="0.074" height="18.889" transform="translate(6.419 -0.124)" fill="#f69624"/>
        <rect id="Rectangle_232" data-name="Rectangle 232" width="0.074" height="18.889" transform="translate(6.468 -0.124)" fill="#f69624"/>
        <rect id="Rectangle_233" data-name="Rectangle 233" width="0.074" height="18.889" transform="translate(6.518 -0.124)" fill="#f69624"/>
        <rect id="Rectangle_234" data-name="Rectangle 234" width="0.074" height="18.889" transform="translate(6.567 -0.124)" fill="#f69724"/>
        <rect id="Rectangle_235" data-name="Rectangle 235" width="0.074" height="18.889" transform="translate(6.617 -0.124)" fill="#f69725"/>
        <rect id="Rectangle_236" data-name="Rectangle 236" width="0.074" height="18.889" transform="translate(6.666 -0.124)" fill="#f69725"/>
        <rect id="Rectangle_237" data-name="Rectangle 237" width="0.074" height="18.889" transform="translate(6.715 -0.124)" fill="#f69725"/>
        <rect id="Rectangle_238" data-name="Rectangle 238" width="0.074" height="18.889" transform="translate(6.765 -0.124)" fill="#f69825"/>
        <rect id="Rectangle_239" data-name="Rectangle 239" width="0.074" height="18.889" transform="translate(6.814 -0.124)" fill="#f69826"/>
        <rect id="Rectangle_240" data-name="Rectangle 240" width="0.074" height="18.889" transform="translate(6.863 -0.124)" fill="#f69826"/>
        <rect id="Rectangle_241" data-name="Rectangle 241" width="0.074" height="18.889" transform="translate(6.913 -0.124)" fill="#f69926"/>
        <rect id="Rectangle_242" data-name="Rectangle 242" width="0.074" height="18.889" transform="translate(6.962 -0.124)" fill="#f69926"/>
        <rect id="Rectangle_243" data-name="Rectangle 243" width="0.074" height="18.889" transform="translate(7.012 -0.124)" fill="#f59927"/>
        <rect id="Rectangle_244" data-name="Rectangle 244" width="0.074" height="18.889" transform="translate(7.061 -0.124)" fill="#f59927"/>
        <rect id="Rectangle_245" data-name="Rectangle 245" width="0.074" height="18.889" transform="translate(7.11 -0.124)" fill="#f59a27"/>
        <rect id="Rectangle_246" data-name="Rectangle 246" width="0.074" height="18.889" transform="translate(7.16 -0.124)" fill="#f59a27"/>
        <rect id="Rectangle_247" data-name="Rectangle 247" width="0.074" height="18.889" transform="translate(7.209 -0.124)" fill="#f59a28"/>
        <rect id="Rectangle_248" data-name="Rectangle 248" width="0.074" height="18.889" transform="translate(7.259 -0.124)" fill="#f59b28"/>
        <rect id="Rectangle_249" data-name="Rectangle 249" width="0.074" height="18.889" transform="translate(7.308 -0.124)" fill="#f59b28"/>
        <rect id="Rectangle_250" data-name="Rectangle 250" width="0.074" height="18.889" transform="translate(7.357 -0.124)" fill="#f59b29"/>
        <rect id="Rectangle_251" data-name="Rectangle 251" width="0.074" height="18.889" transform="translate(7.407 -0.124)" fill="#f59c29"/>
        <rect id="Rectangle_252" data-name="Rectangle 252" width="0.074" height="18.889" transform="translate(7.456 -0.124)" fill="#f59c29"/>
        <rect id="Rectangle_253" data-name="Rectangle 253" width="0.074" height="18.889" transform="translate(7.505 -0.124)" fill="#f59c2a"/>
        <rect id="Rectangle_254" data-name="Rectangle 254" width="0.074" height="18.889" transform="translate(7.555 -0.124)" fill="#f59d2a"/>
        <rect id="Rectangle_255" data-name="Rectangle 255" width="0.074" height="18.889" transform="translate(7.604 -0.124)" fill="#f59d2a"/>
        <rect id="Rectangle_256" data-name="Rectangle 256" width="0.074" height="18.889" transform="translate(7.654 -0.124)" fill="#f59d2b"/>
        <rect id="Rectangle_257" data-name="Rectangle 257" width="0.074" height="18.889" transform="translate(7.703 -0.124)" fill="#f49e2b"/>
        <rect id="Rectangle_258" data-name="Rectangle 258" width="0.074" height="18.889" transform="translate(7.752 -0.124)" fill="#f49e2b"/>
        <rect id="Rectangle_259" data-name="Rectangle 259" width="0.074" height="18.889" transform="translate(7.802 -0.124)" fill="#f49e2b"/>
        <rect id="Rectangle_260" data-name="Rectangle 260" width="0.074" height="18.889" transform="translate(7.851 -0.124)" fill="#f49f2c"/>
        <rect id="Rectangle_261" data-name="Rectangle 261" width="0.074" height="18.889" transform="translate(7.9 -0.124)" fill="#f49f2c"/>
        <rect id="Rectangle_262" data-name="Rectangle 262" width="0.074" height="18.889" transform="translate(7.95 -0.124)" fill="#f4a02c"/>
        <rect id="Rectangle_263" data-name="Rectangle 263" width="0.074" height="18.889" transform="translate(7.999 -0.124)" fill="#f4a02d"/>
        <rect id="Rectangle_264" data-name="Rectangle 264" width="0.074" height="18.889" transform="translate(8.049 -0.124)" fill="#f4a02d"/>
        <rect id="Rectangle_265" data-name="Rectangle 265" width="0.074" height="18.889" transform="translate(8.098 -0.124)" fill="#f4a12d"/>
        <rect id="Rectangle_266" data-name="Rectangle 266" width="0.074" height="18.889" transform="translate(8.147 -0.124)" fill="#f4a12e"/>
        <rect id="Rectangle_267" data-name="Rectangle 267" width="0.074" height="18.889" transform="translate(8.197 -0.124)" fill="#f4a12e"/>
        <rect id="Rectangle_268" data-name="Rectangle 268" width="0.074" height="18.889" transform="translate(8.246 -0.124)" fill="#f4a22e"/>
        <rect id="Rectangle_269" data-name="Rectangle 269" width="0.074" height="18.889" transform="translate(8.295 -0.124)" fill="#f4a22f"/>
        <rect id="Rectangle_270" data-name="Rectangle 270" width="0.074" height="18.889" transform="translate(8.345 -0.124)" fill="#f3a22f"/>
        <rect id="Rectangle_271" data-name="Rectangle 271" width="0.074" height="18.889" transform="translate(8.394 -0.124)" fill="#f3a32f"/>
        <rect id="Rectangle_272" data-name="Rectangle 272" width="0.074" height="18.889" transform="translate(8.444 -0.124)" fill="#f3a32f"/>
        <rect id="Rectangle_273" data-name="Rectangle 273" width="0.074" height="18.889" transform="translate(8.493 -0.124)" fill="#f3a330"/>
        <rect id="Rectangle_274" data-name="Rectangle 274" width="0.074" height="18.889" transform="translate(8.542 -0.124)" fill="#f3a430"/>
        <rect id="Rectangle_275" data-name="Rectangle 275" width="0.074" height="18.889" transform="translate(8.592 -0.124)" fill="#f3a430"/>
        <rect id="Rectangle_276" data-name="Rectangle 276" width="0.074" height="18.889" transform="translate(8.641 -0.124)" fill="#f3a431"/>
        <rect id="Rectangle_277" data-name="Rectangle 277" width="0.074" height="18.889" transform="translate(8.69 -0.124)" fill="#f3a531"/>
        <rect id="Rectangle_278" data-name="Rectangle 278" width="0.074" height="18.889" transform="translate(8.74 -0.124)" fill="#f3a531"/>
        <rect id="Rectangle_279" data-name="Rectangle 279" width="0.074" height="18.889" transform="translate(8.789 -0.124)" fill="#f3a532"/>
        <rect id="Rectangle_280" data-name="Rectangle 280" width="0.074" height="18.889" transform="translate(8.839 -0.124)" fill="#f3a632"/>
        <rect id="Rectangle_281" data-name="Rectangle 281" width="0.074" height="18.889" transform="translate(8.888 -0.124)" fill="#f3a632"/>
        <rect id="Rectangle_282" data-name="Rectangle 282" width="0.074" height="18.889" transform="translate(8.937 -0.124)" fill="#f3a633"/>
        <rect id="Rectangle_283" data-name="Rectangle 283" width="0.074" height="18.889" transform="translate(8.987 -0.124)" fill="#f2a733"/>
        <rect id="Rectangle_284" data-name="Rectangle 284" width="0.074" height="18.889" transform="translate(9.036 -0.124)" fill="#f2a733"/>
        <rect id="Rectangle_285" data-name="Rectangle 285" width="0.074" height="18.889" transform="translate(9.085 -0.124)" fill="#f2a733"/>
        <rect id="Rectangle_286" data-name="Rectangle 286" width="0.074" height="18.889" transform="translate(9.135 -0.124)" fill="#f2a834"/>
        <rect id="Rectangle_287" data-name="Rectangle 287" width="0.074" height="18.889" transform="translate(9.184 -0.124)" fill="#f2a834"/>
        <rect id="Rectangle_288" data-name="Rectangle 288" width="0.074" height="18.889" transform="translate(9.234 -0.124)" fill="#f2a834"/>
        <rect id="Rectangle_289" data-name="Rectangle 289" width="0.074" height="18.889" transform="translate(9.283 -0.124)" fill="#f2a935"/>
        <rect id="Rectangle_290" data-name="Rectangle 290" width="0.074" height="18.889" transform="translate(9.332 -0.124)" fill="#f2a935"/>
        <rect id="Rectangle_291" data-name="Rectangle 291" width="0.074" height="18.889" transform="translate(9.382 -0.124)" fill="#f2a935"/>
        <rect id="Rectangle_292" data-name="Rectangle 292" width="0.074" height="18.889" transform="translate(9.431 -0.124)" fill="#f2aa36"/>
        <rect id="Rectangle_293" data-name="Rectangle 293" width="0.074" height="18.889" transform="translate(9.481 -0.124)" fill="#f2aa36"/>
        <rect id="Rectangle_294" data-name="Rectangle 294" width="0.074" height="18.889" transform="translate(9.53 -0.124)" fill="#f2aa36"/>
        <rect id="Rectangle_295" data-name="Rectangle 295" width="0.074" height="18.889" transform="translate(9.579 -0.124)" fill="#f2ab37"/>
        <rect id="Rectangle_296" data-name="Rectangle 296" width="0.074" height="18.889" transform="translate(9.629 -0.124)" fill="#f1ab37"/>
        <rect id="Rectangle_297" data-name="Rectangle 297" width="0.074" height="18.889" transform="translate(9.678 -0.124)" fill="#f1ab37"/>
        <rect id="Rectangle_298" data-name="Rectangle 298" width="0.074" height="18.889" transform="translate(9.727 -0.124)" fill="#f1ac37"/>
        <rect id="Rectangle_299" data-name="Rectangle 299" width="0.074" height="18.889" transform="translate(9.777 -0.124)" fill="#f1ac38"/>
        <rect id="Rectangle_300" data-name="Rectangle 300" width="0.074" height="18.889" transform="translate(9.826 -0.124)" fill="#f1ac38"/>
        <rect id="Rectangle_301" data-name="Rectangle 301" width="0.074" height="18.889" transform="translate(9.876 -0.124)" fill="#f1ad38"/>
        <rect id="Rectangle_302" data-name="Rectangle 302" width="0.074" height="18.889" transform="translate(9.925 -0.124)" fill="#f1ad39"/>
        <rect id="Rectangle_303" data-name="Rectangle 303" width="0.074" height="18.889" transform="translate(9.974 -0.124)" fill="#f1ad39"/>
        <rect id="Rectangle_304" data-name="Rectangle 304" width="0.074" height="18.889" transform="translate(10.024 -0.124)" fill="#f1ae39"/>
        <rect id="Rectangle_305" data-name="Rectangle 305" width="0.074" height="18.889" transform="translate(10.073 -0.124)" fill="#f1ae3a"/>
        <rect id="Rectangle_306" data-name="Rectangle 306" width="0.074" height="18.889" transform="translate(10.122 -0.124)" fill="#f1ae3a"/>
        <rect id="Rectangle_307" data-name="Rectangle 307" width="0.074" height="18.889" transform="translate(10.172 -0.124)" fill="#f1af3a"/>
        <rect id="Rectangle_308" data-name="Rectangle 308" width="0.074" height="18.889" transform="translate(10.221 -0.124)" fill="#f1af3b"/>
        <rect id="Rectangle_309" data-name="Rectangle 309" width="0.074" height="18.889" transform="translate(10.271 -0.124)" fill="#f0af3b"/>
        <rect id="Rectangle_310" data-name="Rectangle 310" width="0.074" height="18.889" transform="translate(10.32 -0.124)" fill="#f0b03b"/>
        <rect id="Rectangle_311" data-name="Rectangle 311" width="0.074" height="18.889" transform="translate(10.369 -0.124)" fill="#f0b03b"/>
        <rect id="Rectangle_312" data-name="Rectangle 312" width="0.074" height="18.889" transform="translate(10.419 -0.124)" fill="#f0b03c"/>
        <rect id="Rectangle_313" data-name="Rectangle 313" width="0.074" height="18.889" transform="translate(10.468 -0.124)" fill="#f0b13c"/>
        <rect id="Rectangle_314" data-name="Rectangle 314" width="0.074" height="18.889" transform="translate(10.517 -0.124)" fill="#f0b13c"/>
        <rect id="Rectangle_315" data-name="Rectangle 315" width="0.074" height="18.889" transform="translate(10.567 -0.124)" fill="#f0b13d"/>
        <rect id="Rectangle_316" data-name="Rectangle 316" width="0.074" height="18.889" transform="translate(10.616 -0.124)" fill="#f0b23d"/>
        <rect id="Rectangle_317" data-name="Rectangle 317" width="0.074" height="18.889" transform="translate(10.666 -0.124)" fill="#f0b23d"/>
        <rect id="Rectangle_318" data-name="Rectangle 318" width="0.074" height="18.889" transform="translate(10.715 -0.124)" fill="#f0b23e"/>
        <rect id="Rectangle_319" data-name="Rectangle 319" width="0.074" height="18.889" transform="translate(10.764 -0.124)" fill="#f0b33e"/>
        <rect id="Rectangle_320" data-name="Rectangle 320" width="0.074" height="18.889" transform="translate(10.814 -0.124)" fill="#f0b33e"/>
        <rect id="Rectangle_321" data-name="Rectangle 321" width="0.074" height="18.889" transform="translate(10.863 -0.124)" fill="#f0b33f"/>
        <rect id="Rectangle_322" data-name="Rectangle 322" width="0.074" height="18.889" transform="translate(10.912 -0.124)" fill="#f0b43f"/>
        <rect id="Rectangle_323" data-name="Rectangle 323" width="0.074" height="18.889" transform="translate(10.962 -0.124)" fill="#efb43f"/>
        <rect id="Rectangle_324" data-name="Rectangle 324" width="0.074" height="18.889" transform="translate(11.011 -0.124)" fill="#efb53f"/>
        <rect id="Rectangle_325" data-name="Rectangle 325" width="0.074" height="18.889" transform="translate(11.061 -0.124)" fill="#efb540"/>
        <rect id="Rectangle_326" data-name="Rectangle 326" width="0.074" height="18.889" transform="translate(11.11 -0.124)" fill="#efb540"/>
        <rect id="Rectangle_327" data-name="Rectangle 327" width="0.074" height="18.889" transform="translate(11.159 -0.124)" fill="#efb640"/>
        <rect id="Rectangle_328" data-name="Rectangle 328" width="0.074" height="18.889" transform="translate(11.209 -0.124)" fill="#efb641"/>
        <rect id="Rectangle_329" data-name="Rectangle 329" width="0.074" height="18.889" transform="translate(11.258 -0.124)" fill="#efb641"/>
        <rect id="Rectangle_330" data-name="Rectangle 330" width="0.074" height="18.889" transform="translate(11.308 -0.124)" fill="#efb741"/>
        <rect id="Rectangle_331" data-name="Rectangle 331" width="0.074" height="18.889" transform="translate(11.357 -0.124)" fill="#efb742"/>
        <rect id="Rectangle_332" data-name="Rectangle 332" width="0.074" height="18.889" transform="translate(11.406 -0.124)" fill="#efb742"/>
        <rect id="Rectangle_333" data-name="Rectangle 333" width="0.074" height="18.889" transform="translate(11.456 -0.124)" fill="#efb842"/>
        <rect id="Rectangle_334" data-name="Rectangle 334" width="0.074" height="18.889" transform="translate(11.505 -0.124)" fill="#efb843"/>
        <rect id="Rectangle_335" data-name="Rectangle 335" width="0.074" height="18.889" transform="translate(11.554 -0.124)" fill="#efb843"/>
        <rect id="Rectangle_336" data-name="Rectangle 336" width="0.074" height="18.889" transform="translate(11.604 -0.124)" fill="#eeb943"/>
        <rect id="Rectangle_337" data-name="Rectangle 337" width="0.074" height="18.889" transform="translate(11.653 -0.124)" fill="#eeb943"/>
        <rect id="Rectangle_338" data-name="Rectangle 338" width="0.074" height="18.889" transform="translate(11.703 -0.124)" fill="#eeb944"/>
        <rect id="Rectangle_339" data-name="Rectangle 339" width="0.074" height="18.889" transform="translate(11.752 -0.124)" fill="#eeba44"/>
        <rect id="Rectangle_340" data-name="Rectangle 340" width="0.074" height="18.889" transform="translate(11.801 -0.124)" fill="#eeba44"/>
        <rect id="Rectangle_341" data-name="Rectangle 341" width="0.074" height="18.889" transform="translate(11.851 -0.124)" fill="#eeba45"/>
        <rect id="Rectangle_342" data-name="Rectangle 342" width="0.074" height="18.889" transform="translate(11.9 -0.124)" fill="#eebb45"/>
        <rect id="Rectangle_343" data-name="Rectangle 343" width="0.074" height="18.889" transform="translate(11.949 -0.124)" fill="#eebb45"/>
        <rect id="Rectangle_344" data-name="Rectangle 344" width="0.074" height="18.889" transform="translate(11.999 -0.124)" fill="#eebb46"/>
        <rect id="Rectangle_345" data-name="Rectangle 345" width="0.074" height="18.889" transform="translate(12.048 -0.124)" fill="#eebc46"/>
        <rect id="Rectangle_346" data-name="Rectangle 346" width="0.074" height="18.889" transform="translate(12.098 -0.124)" fill="#eebc46"/>
        <rect id="Rectangle_347" data-name="Rectangle 347" width="0.074" height="18.889" transform="translate(12.147 -0.124)" fill="#eebc47"/>
        <rect id="Rectangle_348" data-name="Rectangle 348" width="0.074" height="18.889" transform="translate(12.196 -0.124)" fill="#eebd47"/>
        <rect id="Rectangle_349" data-name="Rectangle 349" width="0.074" height="18.889" transform="translate(12.246 -0.124)" fill="#edbd47"/>
        <rect id="Rectangle_350" data-name="Rectangle 350" width="0.074" height="18.889" transform="translate(12.295 -0.124)" fill="#edbd47"/>
        <rect id="Rectangle_351" data-name="Rectangle 351" width="0.074" height="18.889" transform="translate(12.344 -0.124)" fill="#edbe48"/>
        <rect id="Rectangle_352" data-name="Rectangle 352" width="0.074" height="18.889" transform="translate(12.394 -0.124)" fill="#edbe48"/>
        <rect id="Rectangle_353" data-name="Rectangle 353" width="0.074" height="18.889" transform="translate(12.443 -0.124)" fill="#edbe48"/>
        <rect id="Rectangle_354" data-name="Rectangle 354" width="0.074" height="18.889" transform="translate(12.493 -0.124)" fill="#edbf49"/>
        <rect id="Rectangle_355" data-name="Rectangle 355" width="0.151" height="18.889" transform="translate(12.542 -0.124)" fill="#edbf49"/>
      </g>
    </g>
  </g>
</svg>
