<svg xmlns="http://www.w3.org/2000/svg" xmlns:xlink="http://www.w3.org/1999/xlink" width="251" height="55" viewBox="0 0 251 55">
  <defs>
    <clipPath id="clip-path">
      <path id="Path_665" data-name="Path 665" d="M57.189,166.516a3.254,3.254,0,0,1-.372,1.927,3.323,3.323,0,0,1-3.025,1.679,13.809,13.809,0,0,0-2.7.13,3.457,3.457,0,0,0-2.268,2.19,28.919,28.919,0,0,0-.154,4.971c3.113-.031,1.924-.815,2.238-3.951a1.186,1.186,0,0,1,.91-1.074,24.442,24.442,0,0,0,2.945-.079,5.174,5.174,0,0,0,1.857-.616,5.372,5.372,0,0,0,2.844-5.05,5.272,5.272,0,0,0-2.117-4.048,5.327,5.327,0,0,0-2.067-1.022,10,10,0,0,0-2.847-.188l-3.762,0c.006.795-.168,1.742.691,2.132a13.058,13.058,0,0,0,2.743.091h1.107l1.319.142a3.236,3.236,0,0,1,2.657,2.768" transform="translate(-48.646 -161.372)" fill="none" clip-rule="evenodd"/>
    </clipPath>
    <linearGradient id="linear-gradient" x1="0.024" y1="0.497" x2="0.993" y2="0.503" gradientUnits="objectBoundingBox">
      <stop offset="0" stop-color="#500b7f"/>
      <stop offset="1" stop-color="#d50880"/>
    </linearGradient>
    <clipPath id="clip-path-2">
      <path id="Path_666" data-name="Path 666" d="M196.175,167.322l.008,2.063a1.06,1.06,0,0,1-1.116.935l-4.035-.021a1.145,1.145,0,0,1-1.148-1.381c.1-.64.519-.827,1.059-1a39.14,39.14,0,0,1,5.233-.592m-.47,5.164a3.4,3.4,0,0,0,2.614-2.432,17.943,17.943,0,0,0-.038-5.953,3.924,3.924,0,0,0-.661-1.145,3.278,3.278,0,0,0-1.852-1.2L194.4,161.6h-5.236c.008,2.282.3,2.23,2.493,2.241l1.474,0h1.258c.877.069,1.7.169,1.788,1.218l-.933.14-2.7.313-1.382.174a4.434,4.434,0,0,0-2.43.935,3.257,3.257,0,0,0-1.182,2.171,3.046,3.046,0,0,0,.705,2.551,3.219,3.219,0,0,0,1.926,1.136A26.01,26.01,0,0,0,195.705,172.485Z" transform="translate(-187.51 -161.595)" fill="none" clip-rule="evenodd"/>
    </clipPath>
    <linearGradient id="linear-gradient-2" x1="0.011" y1="0.5" x2="0.992" y2="0.5" gradientUnits="objectBoundingBox">
      <stop offset="0" stop-color="#ee097e"/>
      <stop offset="1" stop-color="#fc5a18"/>
    </linearGradient>
    <clipPath id="clip-path-3">
      <path id="Path_667" data-name="Path 667" d="M341.556,172.248a14.327,14.327,0,0,0,1.447-.72l-.151,1.2a3.539,3.539,0,0,1-1.96,2.227,5.048,5.048,0,0,1-1.967.318c-2.168.029-2.458-.043-2.46,2.233,2.345-.045,5.09.348,6.894-1.484a5.461,5.461,0,0,0,1.862-3.459c.1-.776.025-9.809.028-11.086-1.369.016-2.229-.109-2.248,1.4-.015,1.2,0,2.416,0,3.617,0,2.192-1.12,3.842-3.5,3.782-2.207-.242-3-1.97-3.014-3.946-.036-4.469.555-4.869-2.244-4.85q-.005,2.343-.005,4.686a6.047,6.047,0,0,0,.9,3.782,5.428,5.428,0,0,0,6.413,2.3" transform="translate(-334.24 -161.476)" fill="none" clip-rule="evenodd"/>
    </clipPath>
  </defs>
  <g id="Group_645" data-name="Group 645" transform="translate(-37 -644)">
    <rect id="Rectangle_97" data-name="Rectangle 97" width="251" height="55" rx="8" transform="translate(37 644)" fill="#e8e8e8"/>
    <text id="Pay_with_STC" data-name="Pay with STC" transform="translate(188 678)" fill="#2b2b2b" font-size="15" font-family="Poppins-Medium, Poppins" font-weight="500" letter-spacing="0.022em"><tspan x="-50.01" y="0">Pay with STC</tspan></text>
    <g id="Group_643" data-name="Group 643" transform="translate(84.495 659.962)">
      <path id="Path_664" data-name="Path 664" d="M57.195,39.686h4.758v.749a.763.763,0,0,1-.7.768H58.8v6.468h-1.6V41.2H54.038v-.818a.7.7,0,0,1,.7-.7ZM69.9,47.75c.024-1.962-.617-1.563-3.7-1.553-2.84.01-3.589-2.773-1.987-4.32.986-.952,2.84-.667,4.619-.668,1.055,0,1.158-.495,1.071-1.523l-4.047,0a4.408,4.408,0,0,0-1.693.334,4,4,0,0,0-.011,7.374,5.352,5.352,0,0,0,2.013.347Zm-23.453-.007,1.521,0c1.148,0,2.348.023,3.481-.006a3.4,3.4,0,0,0,1.49-.3,2.3,2.3,0,0,0-.34-4.183c-1.107-.375-3.961-.27-4.472-.622a.821.821,0,0,1-.1-1.172,1.411,1.411,0,0,1,.881-.273c.786-.069,1.855.015,2.344.015,1.526,0,1.968.193,1.876-1.52-1.117.012-2.238,0-3.355,0-1.24,0-2.067-.063-2.827.611a2.285,2.285,0,0,0,1.444,3.951c.992.127,2.054.243,3.036.335.575.054.957.113,1.049.693.1.6-.244.9-.806.922C47.688,46.335,46.327,45.582,46.449,47.743Z" transform="translate(-46.239 -39.685)" fill="#54006a" fill-rule="evenodd"/>
      <g id="Group_638" data-name="Group 638" transform="translate(0.198 9.994)">
        <g id="Group_637" data-name="Group 637" transform="translate(0 0)" clip-path="url(#clip-path)">
          <rect id="Rectangle_98" data-name="Rectangle 98" width="11.043" height="16.11" transform="translate(-0.142 -0.07)" fill="url(#linear-gradient)"/>
        </g>
      </g>
      <g id="Group_640" data-name="Group 640" transform="translate(11.603 10.013)">
        <g id="Group_639" data-name="Group 639" transform="translate(0 0)" clip-path="url(#clip-path-2)">
          <rect id="Rectangle_99" data-name="Rectangle 99" width="11.255" height="11.146" transform="translate(-0.125 0)" fill="url(#linear-gradient-2)"/>
        </g>
      </g>
      <g id="Group_642" data-name="Group 642" transform="translate(23.654 10.003)">
        <g id="Group_641" data-name="Group 641" transform="translate(0)" clip-path="url(#clip-path-3)">
          <rect id="Rectangle_100" data-name="Rectangle 100" width="0.022" height="16.485" transform="translate(0 -0.109)" fill="#fe7304"/>
          <rect id="Rectangle_101" data-name="Rectangle 101" width="0.065" height="16.485" transform="translate(0 -0.109)" fill="#fe7304"/>
          <rect id="Rectangle_102" data-name="Rectangle 102" width="0.065" height="16.485" transform="translate(0.043 -0.109)" fill="#fe7404"/>
          <rect id="Rectangle_103" data-name="Rectangle 103" width="0.065" height="16.485" transform="translate(0.086 -0.109)" fill="#fe7405"/>
          <rect id="Rectangle_104" data-name="Rectangle 104" width="0.065" height="16.485" transform="translate(0.129 -0.109)" fill="#fe7405"/>
          <rect id="Rectangle_105" data-name="Rectangle 105" width="0.065" height="16.485" transform="translate(0.172 -0.109)" fill="#fe7405"/>
          <rect id="Rectangle_106" data-name="Rectangle 106" width="0.065" height="16.485" transform="translate(0.215 -0.109)" fill="#fe7505"/>
          <rect id="Rectangle_107" data-name="Rectangle 107" width="0.065" height="16.485" transform="translate(0.259 -0.109)" fill="#fe7506"/>
          <rect id="Rectangle_108" data-name="Rectangle 108" width="0.065" height="16.485" transform="translate(0.302 -0.109)" fill="#fe7506"/>
          <rect id="Rectangle_109" data-name="Rectangle 109" width="0.065" height="16.485" transform="translate(0.345 -0.109)" fill="#fd7506"/>
          <rect id="Rectangle_110" data-name="Rectangle 110" width="0.065" height="16.485" transform="translate(0.388 -0.109)" fill="#fd7606"/>
          <rect id="Rectangle_111" data-name="Rectangle 111" width="0.065" height="16.485" transform="translate(0.431 -0.109)" fill="#fd7607"/>
          <rect id="Rectangle_112" data-name="Rectangle 112" width="0.065" height="16.485" transform="translate(0.474 -0.109)" fill="#fd7607"/>
          <rect id="Rectangle_113" data-name="Rectangle 113" width="0.065" height="16.485" transform="translate(0.517 -0.109)" fill="#fd7607"/>
          <rect id="Rectangle_114" data-name="Rectangle 114" width="0.065" height="16.485" transform="translate(0.56 -0.109)" fill="#fd7707"/>
          <rect id="Rectangle_115" data-name="Rectangle 115" width="0.065" height="16.485" transform="translate(0.603 -0.109)" fill="#fd7708"/>
          <rect id="Rectangle_116" data-name="Rectangle 116" width="0.065" height="16.485" transform="translate(0.646 -0.109)" fill="#fd7708"/>
          <rect id="Rectangle_117" data-name="Rectangle 117" width="0.065" height="16.485" transform="translate(0.689 -0.109)" fill="#fd7808"/>
          <rect id="Rectangle_118" data-name="Rectangle 118" width="0.065" height="16.485" transform="translate(0.733 -0.109)" fill="#fd7808"/>
          <rect id="Rectangle_119" data-name="Rectangle 119" width="0.065" height="16.485" transform="translate(0.776 -0.109)" fill="#fd7809"/>
          <rect id="Rectangle_120" data-name="Rectangle 120" width="0.065" height="16.485" transform="translate(0.819 -0.109)" fill="#fd7809"/>
          <rect id="Rectangle_121" data-name="Rectangle 121" width="0.065" height="16.485" transform="translate(0.862 -0.109)" fill="#fd7909"/>
          <rect id="Rectangle_122" data-name="Rectangle 122" width="0.065" height="16.485" transform="translate(0.905 -0.109)" fill="#fd7909"/>
          <rect id="Rectangle_123" data-name="Rectangle 123" width="0.065" height="16.485" transform="translate(0.948 -0.109)" fill="#fd790a"/>
          <rect id="Rectangle_124" data-name="Rectangle 124" width="0.065" height="16.485" transform="translate(0.991 -0.109)" fill="#fd790a"/>
          <rect id="Rectangle_125" data-name="Rectangle 125" width="0.065" height="16.485" transform="translate(1.034 -0.109)" fill="#fd7a0a"/>
          <rect id="Rectangle_126" data-name="Rectangle 126" width="0.065" height="16.485" transform="translate(1.077 -0.109)" fill="#fc7a0a"/>
          <rect id="Rectangle_127" data-name="Rectangle 127" width="0.065" height="16.485" transform="translate(1.12 -0.109)" fill="#fc7a0b"/>
          <rect id="Rectangle_128" data-name="Rectangle 128" width="0.065" height="16.485" transform="translate(1.164 -0.109)" fill="#fc7a0b"/>
          <rect id="Rectangle_129" data-name="Rectangle 129" width="0.065" height="16.485" transform="translate(1.207 -0.109)" fill="#fc7b0b"/>
          <rect id="Rectangle_130" data-name="Rectangle 130" width="0.065" height="16.485" transform="translate(1.25 -0.109)" fill="#fc7b0b"/>
          <rect id="Rectangle_131" data-name="Rectangle 131" width="0.065" height="16.485" transform="translate(1.293 -0.109)" fill="#fc7b0b"/>
          <rect id="Rectangle_132" data-name="Rectangle 132" width="0.065" height="16.485" transform="translate(1.336 -0.109)" fill="#fc7c0c"/>
          <rect id="Rectangle_133" data-name="Rectangle 133" width="0.065" height="16.485" transform="translate(1.379 -0.109)" fill="#fc7c0c"/>
          <rect id="Rectangle_134" data-name="Rectangle 134" width="0.065" height="16.485" transform="translate(1.422 -0.109)" fill="#fc7c0c"/>
          <rect id="Rectangle_135" data-name="Rectangle 135" width="0.065" height="16.485" transform="translate(1.465 -0.109)" fill="#fc7c0c"/>
          <rect id="Rectangle_136" data-name="Rectangle 136" width="0.065" height="16.485" transform="translate(1.508 -0.109)" fill="#fc7d0d"/>
          <rect id="Rectangle_137" data-name="Rectangle 137" width="0.065" height="16.485" transform="translate(1.551 -0.109)" fill="#fc7d0d"/>
          <rect id="Rectangle_138" data-name="Rectangle 138" width="0.065" height="16.485" transform="translate(1.594 -0.109)" fill="#fc7d0d"/>
          <rect id="Rectangle_139" data-name="Rectangle 139" width="0.065" height="16.485" transform="translate(1.638 -0.109)" fill="#fc7d0d"/>
          <rect id="Rectangle_140" data-name="Rectangle 140" width="0.065" height="16.485" transform="translate(1.681 -0.109)" fill="#fc7e0e"/>
          <rect id="Rectangle_141" data-name="Rectangle 141" width="0.065" height="16.485" transform="translate(1.724 -0.109)" fill="#fc7e0e"/>
          <rect id="Rectangle_142" data-name="Rectangle 142" width="0.065" height="16.485" transform="translate(1.767 -0.109)" fill="#fc7e0e"/>
          <rect id="Rectangle_143" data-name="Rectangle 143" width="0.065" height="16.485" transform="translate(1.81 -0.109)" fill="#fb7e0e"/>
          <rect id="Rectangle_144" data-name="Rectangle 144" width="0.065" height="16.485" transform="translate(1.853 -0.109)" fill="#fb7f0f"/>
          <rect id="Rectangle_145" data-name="Rectangle 145" width="0.065" height="16.485" transform="translate(1.896 -0.109)" fill="#fb7f0f"/>
          <rect id="Rectangle_146" data-name="Rectangle 146" width="0.065" height="16.485" transform="translate(1.939 -0.109)" fill="#fb7f0f"/>
          <rect id="Rectangle_147" data-name="Rectangle 147" width="0.065" height="16.485" transform="translate(1.982 -0.109)" fill="#fb800f"/>
          <rect id="Rectangle_148" data-name="Rectangle 148" width="0.065" height="16.485" transform="translate(2.025 -0.109)" fill="#fb8010"/>
          <rect id="Rectangle_149" data-name="Rectangle 149" width="0.065" height="16.485" transform="translate(2.069 -0.109)" fill="#fb8010"/>
          <rect id="Rectangle_150" data-name="Rectangle 150" width="0.065" height="16.485" transform="translate(2.112 -0.109)" fill="#fb8010"/>
          <rect id="Rectangle_151" data-name="Rectangle 151" width="0.065" height="16.485" transform="translate(2.155 -0.109)" fill="#fb8110"/>
          <rect id="Rectangle_152" data-name="Rectangle 152" width="0.065" height="16.485" transform="translate(2.198 -0.109)" fill="#fb8111"/>
          <rect id="Rectangle_153" data-name="Rectangle 153" width="0.065" height="16.485" transform="translate(2.241 -0.109)" fill="#fb8111"/>
          <rect id="Rectangle_154" data-name="Rectangle 154" width="0.065" height="16.485" transform="translate(2.284 -0.109)" fill="#fb8111"/>
          <rect id="Rectangle_155" data-name="Rectangle 155" width="0.065" height="16.485" transform="translate(2.327 -0.109)" fill="#fb8211"/>
          <rect id="Rectangle_156" data-name="Rectangle 156" width="0.065" height="16.485" transform="translate(2.37 -0.109)" fill="#fb8212"/>
          <rect id="Rectangle_157" data-name="Rectangle 157" width="0.065" height="16.485" transform="translate(2.413 -0.109)" fill="#fb8212"/>
          <rect id="Rectangle_158" data-name="Rectangle 158" width="0.065" height="16.485" transform="translate(2.456 -0.109)" fill="#fb8212"/>
          <rect id="Rectangle_159" data-name="Rectangle 159" width="0.065" height="16.485" transform="translate(2.499 -0.109)" fill="#fa8312"/>
          <rect id="Rectangle_160" data-name="Rectangle 160" width="0.065" height="16.485" transform="translate(2.543 -0.109)" fill="#fa8312"/>
          <rect id="Rectangle_161" data-name="Rectangle 161" width="0.065" height="16.485" transform="translate(2.586 -0.109)" fill="#fa8313"/>
          <rect id="Rectangle_162" data-name="Rectangle 162" width="0.065" height="16.485" transform="translate(2.629 -0.109)" fill="#fa8313"/>
          <rect id="Rectangle_163" data-name="Rectangle 163" width="0.065" height="16.485" transform="translate(2.672 -0.109)" fill="#fa8413"/>
          <rect id="Rectangle_164" data-name="Rectangle 164" width="0.065" height="16.485" transform="translate(2.715 -0.109)" fill="#fa8413"/>
          <rect id="Rectangle_165" data-name="Rectangle 165" width="0.065" height="16.485" transform="translate(2.758 -0.109)" fill="#fa8414"/>
          <rect id="Rectangle_166" data-name="Rectangle 166" width="0.065" height="16.485" transform="translate(2.801 -0.109)" fill="#fa8514"/>
          <rect id="Rectangle_167" data-name="Rectangle 167" width="0.065" height="16.485" transform="translate(2.844 -0.109)" fill="#fa8514"/>
          <rect id="Rectangle_168" data-name="Rectangle 168" width="0.065" height="16.485" transform="translate(2.887 -0.109)" fill="#fa8514"/>
          <rect id="Rectangle_169" data-name="Rectangle 169" width="0.065" height="16.485" transform="translate(2.93 -0.109)" fill="#fa8515"/>
          <rect id="Rectangle_170" data-name="Rectangle 170" width="0.065" height="16.485" transform="translate(2.973 -0.109)" fill="#fa8615"/>
          <rect id="Rectangle_171" data-name="Rectangle 171" width="0.065" height="16.485" transform="translate(3.017 -0.109)" fill="#fa8615"/>
          <rect id="Rectangle_172" data-name="Rectangle 172" width="0.065" height="16.485" transform="translate(3.06 -0.109)" fill="#fa8615"/>
          <rect id="Rectangle_173" data-name="Rectangle 173" width="0.065" height="16.485" transform="translate(3.103 -0.109)" fill="#fa8616"/>
          <rect id="Rectangle_174" data-name="Rectangle 174" width="0.065" height="16.485" transform="translate(3.146 -0.109)" fill="#fa8716"/>
          <rect id="Rectangle_175" data-name="Rectangle 175" width="0.065" height="16.485" transform="translate(3.189 -0.109)" fill="#fa8716"/>
          <rect id="Rectangle_176" data-name="Rectangle 176" width="0.065" height="16.485" transform="translate(3.232 -0.109)" fill="#f98716"/>
          <rect id="Rectangle_177" data-name="Rectangle 177" width="0.065" height="16.485" transform="translate(3.275 -0.109)" fill="#f98717"/>
          <rect id="Rectangle_178" data-name="Rectangle 178" width="0.065" height="16.485" transform="translate(3.318 -0.109)" fill="#f98817"/>
          <rect id="Rectangle_179" data-name="Rectangle 179" width="0.065" height="16.485" transform="translate(3.361 -0.109)" fill="#f98817"/>
          <rect id="Rectangle_180" data-name="Rectangle 180" width="0.065" height="16.485" transform="translate(3.404 -0.109)" fill="#f98817"/>
          <rect id="Rectangle_181" data-name="Rectangle 181" width="0.065" height="16.485" transform="translate(3.448 -0.109)" fill="#f98918"/>
          <rect id="Rectangle_182" data-name="Rectangle 182" width="0.065" height="16.485" transform="translate(3.491 -0.109)" fill="#f98918"/>
          <rect id="Rectangle_183" data-name="Rectangle 183" width="0.065" height="16.485" transform="translate(3.534 -0.109)" fill="#f98918"/>
          <rect id="Rectangle_184" data-name="Rectangle 184" width="0.065" height="16.485" transform="translate(3.577 -0.109)" fill="#f98918"/>
          <rect id="Rectangle_185" data-name="Rectangle 185" width="0.065" height="16.485" transform="translate(3.62 -0.109)" fill="#f98a19"/>
          <rect id="Rectangle_186" data-name="Rectangle 186" width="0.065" height="16.485" transform="translate(3.663 -0.109)" fill="#f98a19"/>
          <rect id="Rectangle_187" data-name="Rectangle 187" width="0.065" height="16.485" transform="translate(3.706 -0.109)" fill="#f98a19"/>
          <rect id="Rectangle_188" data-name="Rectangle 188" width="0.065" height="16.485" transform="translate(3.749 -0.109)" fill="#f98a19"/>
          <rect id="Rectangle_189" data-name="Rectangle 189" width="0.065" height="16.485" transform="translate(3.792 -0.109)" fill="#f98b1a"/>
          <rect id="Rectangle_190" data-name="Rectangle 190" width="0.065" height="16.485" transform="translate(3.835 -0.109)" fill="#f98b1a"/>
          <rect id="Rectangle_191" data-name="Rectangle 191" width="0.065" height="16.485" transform="translate(3.878 -0.109)" fill="#f98b1a"/>
          <rect id="Rectangle_192" data-name="Rectangle 192" width="0.065" height="16.485" transform="translate(3.922 -0.109)" fill="#f98b1a"/>
          <rect id="Rectangle_193" data-name="Rectangle 193" width="0.065" height="16.485" transform="translate(3.965 -0.109)" fill="#f88c1a"/>
          <rect id="Rectangle_194" data-name="Rectangle 194" width="0.065" height="16.485" transform="translate(4.008 -0.109)" fill="#f88c1b"/>
          <rect id="Rectangle_195" data-name="Rectangle 195" width="0.065" height="16.485" transform="translate(4.051 -0.109)" fill="#f88c1b"/>
          <rect id="Rectangle_196" data-name="Rectangle 196" width="0.065" height="16.485" transform="translate(4.094 -0.109)" fill="#f88d1b"/>
          <rect id="Rectangle_197" data-name="Rectangle 197" width="0.065" height="16.485" transform="translate(4.137 -0.109)" fill="#f88d1b"/>
          <rect id="Rectangle_198" data-name="Rectangle 198" width="0.065" height="16.485" transform="translate(4.18 -0.109)" fill="#f88d1c"/>
          <rect id="Rectangle_199" data-name="Rectangle 199" width="0.065" height="16.485" transform="translate(4.223 -0.109)" fill="#f88d1c"/>
          <rect id="Rectangle_200" data-name="Rectangle 200" width="0.065" height="16.485" transform="translate(4.266 -0.109)" fill="#f88e1c"/>
          <rect id="Rectangle_201" data-name="Rectangle 201" width="0.065" height="16.485" transform="translate(4.309 -0.109)" fill="#f88e1c"/>
          <rect id="Rectangle_202" data-name="Rectangle 202" width="0.065" height="16.485" transform="translate(4.353 -0.109)" fill="#f88e1d"/>
          <rect id="Rectangle_203" data-name="Rectangle 203" width="0.065" height="16.485" transform="translate(4.396 -0.109)" fill="#f88e1d"/>
          <rect id="Rectangle_204" data-name="Rectangle 204" width="0.065" height="16.485" transform="translate(4.439 -0.109)" fill="#f88f1d"/>
          <rect id="Rectangle_205" data-name="Rectangle 205" width="0.065" height="16.485" transform="translate(4.482 -0.109)" fill="#f88f1d"/>
          <rect id="Rectangle_206" data-name="Rectangle 206" width="0.065" height="16.485" transform="translate(4.525 -0.109)" fill="#f88f1e"/>
          <rect id="Rectangle_207" data-name="Rectangle 207" width="0.065" height="16.485" transform="translate(4.568 -0.109)" fill="#f88f1e"/>
          <rect id="Rectangle_208" data-name="Rectangle 208" width="0.065" height="16.485" transform="translate(4.611 -0.109)" fill="#f8901e"/>
          <rect id="Rectangle_209" data-name="Rectangle 209" width="0.065" height="16.485" transform="translate(4.654 -0.109)" fill="#f8901e"/>
          <rect id="Rectangle_210" data-name="Rectangle 210" width="0.065" height="16.485" transform="translate(4.697 -0.109)" fill="#f7901f"/>
          <rect id="Rectangle_211" data-name="Rectangle 211" width="0.065" height="16.485" transform="translate(4.74 -0.109)" fill="#f7911f"/>
          <rect id="Rectangle_212" data-name="Rectangle 212" width="0.065" height="16.485" transform="translate(4.783 -0.109)" fill="#f7911f"/>
          <rect id="Rectangle_213" data-name="Rectangle 213" width="0.065" height="16.485" transform="translate(4.827 -0.109)" fill="#f7911f"/>
          <rect id="Rectangle_214" data-name="Rectangle 214" width="0.065" height="16.485" transform="translate(4.87 -0.109)" fill="#f79120"/>
          <rect id="Rectangle_215" data-name="Rectangle 215" width="0.065" height="16.485" transform="translate(4.913 -0.109)" fill="#f79220"/>
          <rect id="Rectangle_216" data-name="Rectangle 216" width="0.065" height="16.485" transform="translate(4.956 -0.109)" fill="#f79220"/>
          <rect id="Rectangle_217" data-name="Rectangle 217" width="0.065" height="16.485" transform="translate(4.999 -0.109)" fill="#f79220"/>
          <rect id="Rectangle_218" data-name="Rectangle 218" width="0.065" height="16.485" transform="translate(5.042 -0.109)" fill="#f79221"/>
          <rect id="Rectangle_219" data-name="Rectangle 219" width="0.065" height="16.485" transform="translate(5.085 -0.109)" fill="#f79321"/>
          <rect id="Rectangle_220" data-name="Rectangle 220" width="0.065" height="16.485" transform="translate(5.128 -0.109)" fill="#f79321"/>
          <rect id="Rectangle_221" data-name="Rectangle 221" width="0.065" height="16.485" transform="translate(5.171 -0.109)" fill="#f79321"/>
          <rect id="Rectangle_222" data-name="Rectangle 222" width="0.065" height="16.485" transform="translate(5.214 -0.109)" fill="#f79321"/>
          <rect id="Rectangle_223" data-name="Rectangle 223" width="0.065" height="16.485" transform="translate(5.257 -0.109)" fill="#f79422"/>
          <rect id="Rectangle_224" data-name="Rectangle 224" width="0.065" height="16.485" transform="translate(5.301 -0.109)" fill="#f79422"/>
          <rect id="Rectangle_225" data-name="Rectangle 225" width="0.065" height="16.485" transform="translate(5.344 -0.109)" fill="#f79422"/>
          <rect id="Rectangle_226" data-name="Rectangle 226" width="0.065" height="16.485" transform="translate(5.387 -0.109)" fill="#f79522"/>
          <rect id="Rectangle_227" data-name="Rectangle 227" width="0.065" height="16.485" transform="translate(5.43 -0.109)" fill="#f69523"/>
          <rect id="Rectangle_228" data-name="Rectangle 228" width="0.065" height="16.485" transform="translate(5.473 -0.109)" fill="#f69523"/>
          <rect id="Rectangle_229" data-name="Rectangle 229" width="0.065" height="16.485" transform="translate(5.516 -0.109)" fill="#f69523"/>
          <rect id="Rectangle_230" data-name="Rectangle 230" width="0.065" height="16.485" transform="translate(5.559 -0.109)" fill="#f69623"/>
          <rect id="Rectangle_231" data-name="Rectangle 231" width="0.065" height="16.485" transform="translate(5.602 -0.109)" fill="#f69624"/>
          <rect id="Rectangle_232" data-name="Rectangle 232" width="0.065" height="16.485" transform="translate(5.645 -0.109)" fill="#f69624"/>
          <rect id="Rectangle_233" data-name="Rectangle 233" width="0.065" height="16.485" transform="translate(5.688 -0.109)" fill="#f69624"/>
          <rect id="Rectangle_234" data-name="Rectangle 234" width="0.065" height="16.485" transform="translate(5.732 -0.109)" fill="#f69724"/>
          <rect id="Rectangle_235" data-name="Rectangle 235" width="0.065" height="16.485" transform="translate(5.775 -0.109)" fill="#f69725"/>
          <rect id="Rectangle_236" data-name="Rectangle 236" width="0.065" height="16.485" transform="translate(5.818 -0.109)" fill="#f69725"/>
          <rect id="Rectangle_237" data-name="Rectangle 237" width="0.065" height="16.485" transform="translate(5.861 -0.109)" fill="#f69725"/>
          <rect id="Rectangle_238" data-name="Rectangle 238" width="0.065" height="16.485" transform="translate(5.904 -0.109)" fill="#f69825"/>
          <rect id="Rectangle_239" data-name="Rectangle 239" width="0.065" height="16.485" transform="translate(5.947 -0.109)" fill="#f69826"/>
          <rect id="Rectangle_240" data-name="Rectangle 240" width="0.065" height="16.485" transform="translate(5.99 -0.109)" fill="#f69826"/>
          <rect id="Rectangle_241" data-name="Rectangle 241" width="0.065" height="16.485" transform="translate(6.033 -0.109)" fill="#f69926"/>
          <rect id="Rectangle_242" data-name="Rectangle 242" width="0.065" height="16.485" transform="translate(6.076 -0.109)" fill="#f69926"/>
          <rect id="Rectangle_243" data-name="Rectangle 243" width="0.065" height="16.485" transform="translate(6.119 -0.109)" fill="#f59927"/>
          <rect id="Rectangle_244" data-name="Rectangle 244" width="0.065" height="16.485" transform="translate(6.162 -0.109)" fill="#f59927"/>
          <rect id="Rectangle_245" data-name="Rectangle 245" width="0.065" height="16.485" transform="translate(6.206 -0.109)" fill="#f59a27"/>
          <rect id="Rectangle_246" data-name="Rectangle 246" width="0.065" height="16.485" transform="translate(6.249 -0.109)" fill="#f59a27"/>
          <rect id="Rectangle_247" data-name="Rectangle 247" width="0.065" height="16.485" transform="translate(6.292 -0.109)" fill="#f59a28"/>
          <rect id="Rectangle_248" data-name="Rectangle 248" width="0.065" height="16.485" transform="translate(6.335 -0.109)" fill="#f59b28"/>
          <rect id="Rectangle_249" data-name="Rectangle 249" width="0.065" height="16.485" transform="translate(6.378 -0.109)" fill="#f59b28"/>
          <rect id="Rectangle_250" data-name="Rectangle 250" width="0.065" height="16.485" transform="translate(6.421 -0.109)" fill="#f59b29"/>
          <rect id="Rectangle_251" data-name="Rectangle 251" width="0.065" height="16.485" transform="translate(6.464 -0.109)" fill="#f59c29"/>
          <rect id="Rectangle_252" data-name="Rectangle 252" width="0.065" height="16.485" transform="translate(6.507 -0.109)" fill="#f59c29"/>
          <rect id="Rectangle_253" data-name="Rectangle 253" width="0.065" height="16.485" transform="translate(6.55 -0.109)" fill="#f59c2a"/>
          <rect id="Rectangle_254" data-name="Rectangle 254" width="0.065" height="16.485" transform="translate(6.593 -0.109)" fill="#f59d2a"/>
          <rect id="Rectangle_255" data-name="Rectangle 255" width="0.065" height="16.485" transform="translate(6.637 -0.109)" fill="#f59d2a"/>
          <rect id="Rectangle_256" data-name="Rectangle 256" width="0.065" height="16.485" transform="translate(6.68 -0.109)" fill="#f59d2b"/>
          <rect id="Rectangle_257" data-name="Rectangle 257" width="0.065" height="16.485" transform="translate(6.723 -0.109)" fill="#f49e2b"/>
          <rect id="Rectangle_258" data-name="Rectangle 258" width="0.065" height="16.485" transform="translate(6.766 -0.109)" fill="#f49e2b"/>
          <rect id="Rectangle_259" data-name="Rectangle 259" width="0.065" height="16.485" transform="translate(6.809 -0.109)" fill="#f49e2b"/>
          <rect id="Rectangle_260" data-name="Rectangle 260" width="0.065" height="16.485" transform="translate(6.852 -0.109)" fill="#f49f2c"/>
          <rect id="Rectangle_261" data-name="Rectangle 261" width="0.065" height="16.485" transform="translate(6.895 -0.109)" fill="#f49f2c"/>
          <rect id="Rectangle_262" data-name="Rectangle 262" width="0.065" height="16.485" transform="translate(6.938 -0.109)" fill="#f4a02c"/>
          <rect id="Rectangle_263" data-name="Rectangle 263" width="0.065" height="16.485" transform="translate(6.981 -0.109)" fill="#f4a02d"/>
          <rect id="Rectangle_264" data-name="Rectangle 264" width="0.065" height="16.485" transform="translate(7.024 -0.109)" fill="#f4a02d"/>
          <rect id="Rectangle_265" data-name="Rectangle 265" width="0.065" height="16.485" transform="translate(7.067 -0.109)" fill="#f4a12d"/>
          <rect id="Rectangle_266" data-name="Rectangle 266" width="0.065" height="16.485" transform="translate(7.111 -0.109)" fill="#f4a12e"/>
          <rect id="Rectangle_267" data-name="Rectangle 267" width="0.065" height="16.485" transform="translate(7.154 -0.109)" fill="#f4a12e"/>
          <rect id="Rectangle_268" data-name="Rectangle 268" width="0.065" height="16.485" transform="translate(7.197 -0.109)" fill="#f4a22e"/>
          <rect id="Rectangle_269" data-name="Rectangle 269" width="0.065" height="16.485" transform="translate(7.24 -0.109)" fill="#f4a22f"/>
          <rect id="Rectangle_270" data-name="Rectangle 270" width="0.065" height="16.485" transform="translate(7.283 -0.109)" fill="#f3a22f"/>
          <rect id="Rectangle_271" data-name="Rectangle 271" width="0.065" height="16.485" transform="translate(7.326 -0.109)" fill="#f3a32f"/>
          <rect id="Rectangle_272" data-name="Rectangle 272" width="0.065" height="16.485" transform="translate(7.369 -0.109)" fill="#f3a32f"/>
          <rect id="Rectangle_273" data-name="Rectangle 273" width="0.065" height="16.485" transform="translate(7.412 -0.109)" fill="#f3a330"/>
          <rect id="Rectangle_274" data-name="Rectangle 274" width="0.065" height="16.485" transform="translate(7.455 -0.109)" fill="#f3a430"/>
          <rect id="Rectangle_275" data-name="Rectangle 275" width="0.065" height="16.485" transform="translate(7.498 -0.109)" fill="#f3a430"/>
          <rect id="Rectangle_276" data-name="Rectangle 276" width="0.065" height="16.485" transform="translate(7.541 -0.109)" fill="#f3a431"/>
          <rect id="Rectangle_277" data-name="Rectangle 277" width="0.065" height="16.485" transform="translate(7.585 -0.109)" fill="#f3a531"/>
          <rect id="Rectangle_278" data-name="Rectangle 278" width="0.065" height="16.485" transform="translate(7.628 -0.109)" fill="#f3a531"/>
          <rect id="Rectangle_279" data-name="Rectangle 279" width="0.065" height="16.485" transform="translate(7.671 -0.109)" fill="#f3a532"/>
          <rect id="Rectangle_280" data-name="Rectangle 280" width="0.065" height="16.485" transform="translate(7.714 -0.109)" fill="#f3a632"/>
          <rect id="Rectangle_281" data-name="Rectangle 281" width="0.065" height="16.485" transform="translate(7.757 -0.109)" fill="#f3a632"/>
          <rect id="Rectangle_282" data-name="Rectangle 282" width="0.065" height="16.485" transform="translate(7.8 -0.109)" fill="#f3a633"/>
          <rect id="Rectangle_283" data-name="Rectangle 283" width="0.065" height="16.485" transform="translate(7.843 -0.109)" fill="#f2a733"/>
          <rect id="Rectangle_284" data-name="Rectangle 284" width="0.065" height="16.485" transform="translate(7.886 -0.109)" fill="#f2a733"/>
          <rect id="Rectangle_285" data-name="Rectangle 285" width="0.065" height="16.485" transform="translate(7.929 -0.109)" fill="#f2a733"/>
          <rect id="Rectangle_286" data-name="Rectangle 286" width="0.065" height="16.485" transform="translate(7.972 -0.109)" fill="#f2a834"/>
          <rect id="Rectangle_287" data-name="Rectangle 287" width="0.065" height="16.485" transform="translate(8.016 -0.109)" fill="#f2a834"/>
          <rect id="Rectangle_288" data-name="Rectangle 288" width="0.065" height="16.485" transform="translate(8.059 -0.109)" fill="#f2a834"/>
          <rect id="Rectangle_289" data-name="Rectangle 289" width="0.065" height="16.485" transform="translate(8.102 -0.109)" fill="#f2a935"/>
          <rect id="Rectangle_290" data-name="Rectangle 290" width="0.065" height="16.485" transform="translate(8.145 -0.109)" fill="#f2a935"/>
          <rect id="Rectangle_291" data-name="Rectangle 291" width="0.065" height="16.485" transform="translate(8.188 -0.109)" fill="#f2a935"/>
          <rect id="Rectangle_292" data-name="Rectangle 292" width="0.065" height="16.485" transform="translate(8.231 -0.109)" fill="#f2aa36"/>
          <rect id="Rectangle_293" data-name="Rectangle 293" width="0.065" height="16.485" transform="translate(8.274 -0.109)" fill="#f2aa36"/>
          <rect id="Rectangle_294" data-name="Rectangle 294" width="0.065" height="16.485" transform="translate(8.317 -0.109)" fill="#f2aa36"/>
          <rect id="Rectangle_295" data-name="Rectangle 295" width="0.065" height="16.485" transform="translate(8.36 -0.109)" fill="#f2ab37"/>
          <rect id="Rectangle_296" data-name="Rectangle 296" width="0.065" height="16.485" transform="translate(8.403 -0.109)" fill="#f1ab37"/>
          <rect id="Rectangle_297" data-name="Rectangle 297" width="0.065" height="16.485" transform="translate(8.446 -0.109)" fill="#f1ab37"/>
          <rect id="Rectangle_298" data-name="Rectangle 298" width="0.065" height="16.485" transform="translate(8.49 -0.109)" fill="#f1ac37"/>
          <rect id="Rectangle_299" data-name="Rectangle 299" width="0.065" height="16.485" transform="translate(8.533 -0.109)" fill="#f1ac38"/>
          <rect id="Rectangle_300" data-name="Rectangle 300" width="0.065" height="16.485" transform="translate(8.576 -0.109)" fill="#f1ac38"/>
          <rect id="Rectangle_301" data-name="Rectangle 301" width="0.065" height="16.485" transform="translate(8.619 -0.109)" fill="#f1ad38"/>
          <rect id="Rectangle_302" data-name="Rectangle 302" width="0.065" height="16.485" transform="translate(8.662 -0.109)" fill="#f1ad39"/>
          <rect id="Rectangle_303" data-name="Rectangle 303" width="0.065" height="16.485" transform="translate(8.705 -0.109)" fill="#f1ad39"/>
          <rect id="Rectangle_304" data-name="Rectangle 304" width="0.065" height="16.485" transform="translate(8.748 -0.109)" fill="#f1ae39"/>
          <rect id="Rectangle_305" data-name="Rectangle 305" width="0.065" height="16.485" transform="translate(8.791 -0.109)" fill="#f1ae3a"/>
          <rect id="Rectangle_306" data-name="Rectangle 306" width="0.065" height="16.485" transform="translate(8.834 -0.109)" fill="#f1ae3a"/>
          <rect id="Rectangle_307" data-name="Rectangle 307" width="0.065" height="16.485" transform="translate(8.877 -0.109)" fill="#f1af3a"/>
          <rect id="Rectangle_308" data-name="Rectangle 308" width="0.065" height="16.485" transform="translate(8.921 -0.109)" fill="#f1af3b"/>
          <rect id="Rectangle_309" data-name="Rectangle 309" width="0.065" height="16.485" transform="translate(8.964 -0.109)" fill="#f0af3b"/>
          <rect id="Rectangle_310" data-name="Rectangle 310" width="0.065" height="16.485" transform="translate(9.007 -0.109)" fill="#f0b03b"/>
          <rect id="Rectangle_311" data-name="Rectangle 311" width="0.065" height="16.485" transform="translate(9.05 -0.109)" fill="#f0b03b"/>
          <rect id="Rectangle_312" data-name="Rectangle 312" width="0.065" height="16.485" transform="translate(9.093 -0.109)" fill="#f0b03c"/>
          <rect id="Rectangle_313" data-name="Rectangle 313" width="0.065" height="16.485" transform="translate(9.136 -0.109)" fill="#f0b13c"/>
          <rect id="Rectangle_314" data-name="Rectangle 314" width="0.065" height="16.485" transform="translate(9.179 -0.109)" fill="#f0b13c"/>
          <rect id="Rectangle_315" data-name="Rectangle 315" width="0.065" height="16.485" transform="translate(9.222 -0.109)" fill="#f0b13d"/>
          <rect id="Rectangle_316" data-name="Rectangle 316" width="0.065" height="16.485" transform="translate(9.265 -0.109)" fill="#f0b23d"/>
          <rect id="Rectangle_317" data-name="Rectangle 317" width="0.065" height="16.485" transform="translate(9.308 -0.109)" fill="#f0b23d"/>
          <rect id="Rectangle_318" data-name="Rectangle 318" width="0.065" height="16.485" transform="translate(9.351 -0.109)" fill="#f0b23e"/>
          <rect id="Rectangle_319" data-name="Rectangle 319" width="0.065" height="16.485" transform="translate(9.395 -0.109)" fill="#f0b33e"/>
          <rect id="Rectangle_320" data-name="Rectangle 320" width="0.065" height="16.485" transform="translate(9.438 -0.109)" fill="#f0b33e"/>
          <rect id="Rectangle_321" data-name="Rectangle 321" width="0.065" height="16.485" transform="translate(9.481 -0.109)" fill="#f0b33f"/>
          <rect id="Rectangle_322" data-name="Rectangle 322" width="0.065" height="16.485" transform="translate(9.524 -0.109)" fill="#f0b43f"/>
          <rect id="Rectangle_323" data-name="Rectangle 323" width="0.065" height="16.485" transform="translate(9.567 -0.109)" fill="#efb43f"/>
          <rect id="Rectangle_324" data-name="Rectangle 324" width="0.065" height="16.485" transform="translate(9.61 -0.109)" fill="#efb53f"/>
          <rect id="Rectangle_325" data-name="Rectangle 325" width="0.065" height="16.485" transform="translate(9.653 -0.109)" fill="#efb540"/>
          <rect id="Rectangle_326" data-name="Rectangle 326" width="0.065" height="16.485" transform="translate(9.696 -0.109)" fill="#efb540"/>
          <rect id="Rectangle_327" data-name="Rectangle 327" width="0.065" height="16.485" transform="translate(9.739 -0.109)" fill="#efb640"/>
          <rect id="Rectangle_328" data-name="Rectangle 328" width="0.065" height="16.485" transform="translate(9.782 -0.109)" fill="#efb641"/>
          <rect id="Rectangle_329" data-name="Rectangle 329" width="0.065" height="16.485" transform="translate(9.826 -0.109)" fill="#efb641"/>
          <rect id="Rectangle_330" data-name="Rectangle 330" width="0.065" height="16.485" transform="translate(9.869 -0.109)" fill="#efb741"/>
          <rect id="Rectangle_331" data-name="Rectangle 331" width="0.065" height="16.485" transform="translate(9.912 -0.109)" fill="#efb742"/>
          <rect id="Rectangle_332" data-name="Rectangle 332" width="0.065" height="16.485" transform="translate(9.955 -0.109)" fill="#efb742"/>
          <rect id="Rectangle_333" data-name="Rectangle 333" width="0.065" height="16.485" transform="translate(9.998 -0.109)" fill="#efb842"/>
          <rect id="Rectangle_334" data-name="Rectangle 334" width="0.065" height="16.485" transform="translate(10.041 -0.109)" fill="#efb843"/>
          <rect id="Rectangle_335" data-name="Rectangle 335" width="0.065" height="16.485" transform="translate(10.084 -0.109)" fill="#efb843"/>
          <rect id="Rectangle_336" data-name="Rectangle 336" width="0.065" height="16.485" transform="translate(10.127 -0.109)" fill="#eeb943"/>
          <rect id="Rectangle_337" data-name="Rectangle 337" width="0.065" height="16.485" transform="translate(10.17 -0.109)" fill="#eeb943"/>
          <rect id="Rectangle_338" data-name="Rectangle 338" width="0.065" height="16.485" transform="translate(10.213 -0.109)" fill="#eeb944"/>
          <rect id="Rectangle_339" data-name="Rectangle 339" width="0.065" height="16.485" transform="translate(10.256 -0.109)" fill="#eeba44"/>
          <rect id="Rectangle_340" data-name="Rectangle 340" width="0.065" height="16.485" transform="translate(10.3 -0.109)" fill="#eeba44"/>
          <rect id="Rectangle_341" data-name="Rectangle 341" width="0.065" height="16.485" transform="translate(10.343 -0.109)" fill="#eeba45"/>
          <rect id="Rectangle_342" data-name="Rectangle 342" width="0.065" height="16.485" transform="translate(10.386 -0.109)" fill="#eebb45"/>
          <rect id="Rectangle_343" data-name="Rectangle 343" width="0.065" height="16.485" transform="translate(10.429 -0.109)" fill="#eebb45"/>
          <rect id="Rectangle_344" data-name="Rectangle 344" width="0.065" height="16.485" transform="translate(10.472 -0.109)" fill="#eebb46"/>
          <rect id="Rectangle_345" data-name="Rectangle 345" width="0.065" height="16.485" transform="translate(10.515 -0.109)" fill="#eebc46"/>
          <rect id="Rectangle_346" data-name="Rectangle 346" width="0.065" height="16.485" transform="translate(10.558 -0.109)" fill="#eebc46"/>
          <rect id="Rectangle_347" data-name="Rectangle 347" width="0.065" height="16.485" transform="translate(10.601 -0.109)" fill="#eebc47"/>
          <rect id="Rectangle_348" data-name="Rectangle 348" width="0.065" height="16.485" transform="translate(10.644 -0.109)" fill="#eebd47"/>
          <rect id="Rectangle_349" data-name="Rectangle 349" width="0.065" height="16.485" transform="translate(10.687 -0.109)" fill="#edbd47"/>
          <rect id="Rectangle_350" data-name="Rectangle 350" width="0.065" height="16.485" transform="translate(10.73 -0.109)" fill="#edbd47"/>
          <rect id="Rectangle_351" data-name="Rectangle 351" width="0.065" height="16.485" transform="translate(10.774 -0.109)" fill="#edbe48"/>
          <rect id="Rectangle_352" data-name="Rectangle 352" width="0.065" height="16.485" transform="translate(10.817 -0.109)" fill="#edbe48"/>
          <rect id="Rectangle_353" data-name="Rectangle 353" width="0.065" height="16.485" transform="translate(10.86 -0.109)" fill="#edbe48"/>
          <rect id="Rectangle_354" data-name="Rectangle 354" width="0.065" height="16.485" transform="translate(10.903 -0.109)" fill="#edbf49"/>
          <rect id="Rectangle_355" data-name="Rectangle 355" width="0.132" height="16.485" transform="translate(10.946 -0.109)" fill="#edbf49"/>
        </g>
      </g>
    </g>
  </g>
</svg>
