<svg xmlns="http://www.w3.org/2000/svg" width="48" height="48" viewBox="0 0 48 48">
  <g id="twitter_2_" data-name="twitter(2)" transform="translate(-0.001)">
    <circle id="Ellipse_34" data-name="Ellipse 34" cx="24" cy="24" r="24" transform="translate(0.001 0)" fill="#55acee"/>
    <g id="Group_577" data-name="Group 577" transform="translate(13.065 16.589)">
      <path id="Path_651" data-name="Path 651" d="M48.726,36.3a9.67,9.67,0,0,1-2.784.762,4.86,4.86,0,0,0,2.131-2.681A9.7,9.7,0,0,1,45,35.558a4.851,4.851,0,0,0-8.259,4.421,13.758,13.758,0,0,1-9.99-5.064,4.852,4.852,0,0,0,1.5,6.471,4.812,4.812,0,0,1-2.2-.607c0,.021,0,.041,0,.061a4.849,4.849,0,0,0,3.888,4.752,4.865,4.865,0,0,1-2.189.084,4.852,4.852,0,0,0,4.527,3.366A9.784,9.784,0,0,1,25.1,51.048,13.783,13.783,0,0,0,46.321,39.436c0-.21,0-.419-.014-.627A9.828,9.828,0,0,0,48.726,36.3Z" transform="translate(-25.103 -34.028)" fill="#f1f2f2"/>
    </g>
  </g>
</svg>
